<svg version="1.1" id="Layer_1" xmlns="http://www.w3.org/2000/svg" xmlns:xlink="http://www.w3.org/1999/xlink" x="0px" y="0px"
	 width="100%" viewBox="0 0 192 256" enable-background="new 0 0 192 256" xml:space="preserve">
<path fill="#000000" opacity="1.000000" stroke="none" 
	d="
M60.000000,257.000000 
	C40.343864,257.000000 20.687731,257.000000 1.015799,257.000000 
	C1.015799,171.722900 1.015799,86.445801 1.015799,1.084349 
	C64.909393,1.084349 128.818924,1.084349 192.864227,1.084349 
	C192.864227,86.333183 192.864227,171.666565 192.864227,257.000000 
	C175.251694,257.000000 157.594513,257.000000 139.474533,256.573395 
	C138.946411,254.445847 138.881073,252.744904 138.822327,250.707825 
	C137.586365,249.569641 136.343811,248.767578 134.986084,247.659424 
	C133.585266,245.936890 132.299637,244.520432 131.389771,243.065887 
	C133.532257,242.396896 135.298965,241.765976 137.440643,241.092194 
	C149.710617,237.237686 153.293213,233.167725 152.900436,223.600723 
	C152.349747,221.133377 151.736191,219.049179 151.066986,216.580902 
	C148.815643,211.454849 146.620056,206.712814 144.424225,201.970901 
	C142.603500,198.038956 140.782501,194.107132 139.359680,190.093445 
	C141.152069,186.283844 140.839539,183.060349 136.864197,180.494995 
	C136.449966,178.215439 136.337845,176.282150 135.973633,174.397568 
	C135.530197,172.103088 134.874603,169.849579 134.291809,167.170380 
	C134.170563,164.851303 134.068314,162.940186 134.070557,160.676407 
	C134.538345,158.924957 134.901627,157.526154 135.668259,156.105209 
	C145.941284,155.730103 152.377777,148.747711 151.893250,138.587677 
	C151.819214,131.639694 147.862732,127.546432 142.949615,123.655617 
	C143.638458,117.154305 144.273773,111.100037 144.949600,104.679855 
	C145.043747,103.580368 145.097351,102.846786 145.430542,101.818123 
	C146.075684,97.337303 146.441238,93.151558 147.015045,88.628532 
	C148.849976,84.098953 147.826050,80.524467 144.480438,77.161163 
	C141.107681,75.850433 137.778564,73.688782 134.841614,74.131111 
	C132.288376,74.515656 130.178513,77.844124 127.583138,79.899307 
	C126.906029,79.943474 126.518517,79.959938 125.966385,79.667145 
	C122.829460,71.642441 117.265327,69.304153 109.129013,69.838776 
	C95.430000,70.738922 81.640182,70.259544 67.941719,71.164795 
	C59.769176,71.704872 52.780003,74.085274 52.108521,81.407501 
	C52.076977,83.892616 52.103565,85.941689 52.088161,88.329178 
	C52.314392,89.482498 52.582619,90.297409 52.899254,91.432739 
	C53.011700,92.180206 53.075741,92.607239 53.097855,93.457809 
	C53.322800,96.291969 53.589672,98.702606 53.904198,101.433655 
	C54.017639,102.180618 54.083427,102.607170 54.107735,103.400520 
	C54.073143,104.504593 54.080036,105.241867 54.049957,106.318260 
	C54.033989,107.111153 54.055000,107.564934 54.042778,108.438080 
	C54.620914,113.272598 55.232281,117.687729 55.882488,122.310623 
	C55.921329,122.518387 55.958992,122.939430 55.603371,122.971268 
	C47.554245,126.947327 43.663490,134.536789 45.973949,141.503143 
	C46.862549,148.224030 50.911579,152.717072 57.197556,154.376190 
	C58.917274,154.797134 60.408642,154.921112 61.918663,155.392456 
	C61.927769,156.433182 61.918221,157.126556 61.546761,157.901352 
	C60.418457,160.300156 59.652065,162.617508 58.571041,165.083160 
	C55.814926,170.115479 53.373444,174.999512 50.618137,180.010468 
	C48.872463,180.995010 46.595402,181.565079 46.185352,182.770309 
	C45.341167,185.251602 43.124454,188.676987 47.765171,190.451416 
	C47.092999,195.974762 46.551304,201.124786 45.990002,206.272659 
	C45.815197,207.875854 45.479721,209.468246 45.404564,211.074326 
	C45.201588,215.411560 45.099079,219.753479 44.977692,224.456085 
	C45.051929,225.541290 45.105179,226.263962 45.088913,227.392517 
	C45.829582,236.886322 50.703445,245.989761 60.839703,245.156860 
	C60.895641,245.189056 60.986179,245.097046 60.988297,245.483063 
	C60.712864,247.590439 60.435314,249.311813 60.084644,251.453857 
	C60.007687,253.583023 60.003845,255.291504 60.000000,257.000000 
z"/>
<path fill="#000000" opacity="1.000000" stroke="none" 
	d="
M103.000000,257.000000 
	C100.957680,257.000000 98.915367,257.000000 96.435616,256.611023 
	C96.270668,254.498077 96.543152,252.774063 96.826752,250.716705 
	C95.261879,248.909378 93.685883,247.435379 91.957397,245.634384 
	C90.544922,243.848526 89.284920,242.389664 87.935486,240.653931 
	C87.512871,239.913742 87.179688,239.450424 86.924850,238.546341 
	C87.010704,235.427689 87.018227,232.749802 87.358582,229.847443 
	C88.142143,226.779327 88.592873,223.935638 89.496796,221.060089 
	C93.280128,221.055038 96.610275,221.081894 99.967682,221.517685 
	C100.663528,225.288422 101.332130,228.650208 102.000008,232.449554 
	C102.050827,234.926453 102.102386,236.965805 102.090004,239.252808 
	C102.076050,239.663483 102.126038,239.826508 102.103111,240.385666 
	C102.076218,241.851547 102.122246,242.921310 102.087906,244.424194 
	C102.058548,246.919357 102.109573,248.981384 102.087326,251.425125 
	C102.342705,253.537888 102.671349,255.268951 103.000000,257.000000 
z"/>
<path fill="#C88A56" opacity="1.000000" stroke="none" 
	d="
M96.815628,251.050049 
	C96.543152,252.774063 96.270668,254.498077 95.999092,256.611023 
	C84.312439,257.000000 72.624878,257.000000 60.468658,257.000000 
	C60.003845,255.291504 60.007687,253.583023 60.542355,251.442581 
	C72.987328,251.023773 84.901482,251.036911 96.815628,251.050049 
z"/>
<path fill="#C88A56" opacity="1.000000" stroke="none" 
	d="
M103.468658,257.000000 
	C102.671349,255.268951 102.342705,253.537888 102.544785,251.411987 
	C114.988922,251.026093 126.902321,251.035019 138.815735,251.043961 
	C138.881073,252.744904 138.946411,254.445847 139.005875,256.573395 
	C127.312439,257.000000 115.624878,257.000000 103.468658,257.000000 
z"/>
<path fill="#3D3E41" opacity="1.000000" stroke="none" 
	d="
M54.149216,103.033722 
	C54.083427,102.607170 54.017639,102.180618 54.141281,101.116470 
	C53.933735,97.997337 53.536758,95.515808 53.139778,93.034279 
	C53.075741,92.607239 53.011700,92.180206 53.125614,91.175049 
	C53.523659,89.726013 53.743748,88.855095 53.992348,87.617859 
	C56.410927,85.238953 58.507687,82.410408 61.264938,81.419266 
	C64.751862,80.165825 68.774178,80.088173 72.569633,80.060524 
	C89.710915,79.935669 106.853638,80.007561 124.351700,80.008682 
	C125.182030,79.998001 125.656517,79.987206 126.130997,79.976410 
	C126.518517,79.959938 126.906029,79.943474 127.878807,80.139282 
	C129.968506,80.552933 131.472961,80.754311 133.356842,81.042480 
	C137.825653,83.084778 141.915054,85.040283 146.010788,87.322586 
	C146.026917,88.084541 146.036697,88.519699 145.887299,89.319000 
	C145.535736,93.826500 145.343353,97.969849 145.150970,102.113205 
	C145.097351,102.846786 145.043747,103.580368 144.659515,104.895813 
	C142.217102,111.499092 140.093018,117.518990 141.987839,124.433945 
	C141.657455,127.211281 141.382538,129.595230 141.014587,132.379395 
	C139.329529,137.182709 141.277603,142.918488 135.595383,145.902176 
	C134.214233,145.804047 133.210999,145.727829 132.000061,145.350388 
	C131.223938,143.213135 130.139816,141.360703 130.197540,139.544571 
	C130.307739,136.077255 131.109009,132.635773 131.550659,129.174271 
	C132.352188,122.892059 133.100403,116.603043 133.955917,109.623062 
	C110.625305,116.714577 88.136536,116.686302 65.171432,111.033981 
	C65.171432,113.445801 65.024216,115.408394 65.197891,117.342171 
	C65.822281,124.294678 66.514168,131.241882 67.265930,138.181839 
	C67.589325,141.167313 66.773125,143.414017 63.489326,144.616333 
	C62.432533,144.611374 61.727482,144.588074 60.782028,144.335052 
	C59.648777,142.429749 58.389164,140.845276 57.945057,139.058151 
	C57.191853,136.027191 56.953133,132.868378 56.524582,129.336990 
	C56.353668,126.920258 56.156330,124.929848 55.958992,122.939430 
	C55.958992,122.939430 55.921329,122.518387 56.183578,122.101227 
	C58.256927,117.873161 57.129841,111.373894 54.076008,108.018707 
	C54.055000,107.564934 54.033989,107.111153 54.327202,106.229523 
	C54.477352,104.879013 54.313286,103.956367 54.149216,103.033722 
z"/>
<path fill="#BD7958" opacity="1.000000" stroke="none" 
	d="
M63.841068,144.597961 
	C66.773125,143.414017 67.589325,141.167313 67.265930,138.181839 
	C66.514168,131.241882 65.822281,124.294678 65.197891,117.342171 
	C65.024216,115.408394 65.171432,113.445801 65.171432,111.033981 
	C88.136536,116.686302 110.625305,116.714577 133.955917,109.623062 
	C133.100403,116.603043 132.352188,122.892059 131.550659,129.174271 
	C131.109009,132.635773 130.307739,136.077255 130.197540,139.544571 
	C130.139816,141.360703 131.223938,143.213135 131.821167,145.703156 
	C129.423477,151.183167 126.646942,155.992233 131.098587,161.487457 
	C129.372208,163.369965 127.680573,164.918060 125.539345,166.459854 
	C122.406868,166.571960 119.723991,166.690369 116.773453,166.671997 
	C115.129211,166.699524 113.752640,166.863831 111.961258,166.883179 
	C101.061615,166.495728 90.576775,166.253250 79.663841,165.994034 
	C75.467285,165.965424 71.698830,165.953552 67.531982,165.943085 
	C60.988529,166.068146 62.587795,161.211411 61.908672,157.819916 
	C61.918221,157.126556 61.927769,156.433182 62.215500,155.197357 
	C66.331650,151.756592 63.802452,148.005264 63.841068,144.597961 
M109.165024,142.629822 
	C111.479897,146.721954 114.926476,148.035065 119.140083,146.046494 
	C123.700203,143.894394 124.892532,139.538452 123.569862,133.414444 
	C124.805794,133.090652 126.041718,132.766861 127.614395,132.354843 
	C127.224739,130.579620 126.889702,129.053253 126.471550,127.148193 
	C120.305809,128.116806 114.484123,129.027908 108.663681,129.946899 
	C104.559166,130.594955 105.941406,133.155579 106.758430,135.488861 
	C107.512184,137.641418 108.309380,139.778763 109.165024,142.629822 
M75.754288,131.829468 
	C75.133621,134.163239 73.823875,136.563812 74.042213,138.816269 
	C74.441345,142.933990 76.863487,145.956680 81.439224,145.986313 
	C85.390701,146.011902 88.551331,144.628662 88.977600,139.123779 
	C89.301582,136.737793 88.180298,134.228027 91.521439,132.456436 
	C94.060822,131.109970 92.934120,127.870850 89.818390,127.265846 
	C84.027740,126.141434 78.188133,125.269135 72.474365,124.309586 
	C70.128708,129.751282 70.259560,129.974838 75.754288,131.829468 
M91.254974,146.075195 
	C88.273109,147.758820 85.146721,149.242981 82.391479,151.239365 
	C81.484970,151.896225 80.912048,154.133514 81.337387,155.180710 
	C81.731171,156.150208 83.718124,157.120316 84.908745,157.015366 
	C93.945786,156.218796 102.939774,156.093536 111.907677,157.677704 
	C112.067741,157.705978 112.261940,157.721878 112.401291,157.658264 
	C113.680389,157.074509 115.846642,156.659866 116.020393,155.832016 
	C116.302948,154.485764 115.741592,152.279678 114.719093,151.474731 
	C112.031609,149.359039 108.903625,147.802902 105.902565,145.275803 
	C105.470581,141.042175 102.978477,138.953781 98.881119,139.251114 
	C94.930153,139.537827 91.674759,141.007111 91.254974,146.075195 
z"/>
<path fill="#BD7959" opacity="1.000000" stroke="none" 
	d="
M138.961624,190.175232 
	C140.782501,194.107132 142.603500,198.038956 144.424225,201.970901 
	C146.620056,206.712814 148.815643,211.454849 150.708374,216.527191 
	C148.088440,216.007492 146.757416,216.448196 145.307678,218.888885 
	C143.741684,221.525269 141.323517,224.244751 138.615295,225.498184 
	C131.670013,228.712708 127.793701,233.298203 128.659454,241.178940 
	C128.438889,241.124542 128.010056,240.972397 127.931419,240.694382 
	C127.521904,239.949524 127.191032,239.482681 126.747688,238.621582 
	C126.165802,235.166031 125.696388,232.104767 125.341553,228.643250 
	C125.607559,223.509811 125.758987,218.776596 126.291168,214.002029 
	C131.939621,211.797226 129.301682,206.553253 130.974380,202.564178 
	C131.612747,198.472427 132.227509,194.796265 133.231003,191.057434 
	C135.400375,190.721588 137.181000,190.448410 138.961624,190.175232 
z"/>
<path fill="#464B52" opacity="1.000000" stroke="none" 
	d="
M123.995842,80.008575 
	C106.853638,80.007561 89.710915,79.935669 72.569633,80.060524 
	C68.774178,80.088173 64.751862,80.165825 61.264938,81.419266 
	C58.507687,82.410408 56.410927,85.238953 53.687164,87.621155 
	C52.945698,87.990768 52.537930,87.990768 52.130157,87.990768 
	C52.103565,85.941689 52.076977,83.892616 52.414730,81.300873 
	C56.255047,76.276520 61.007538,74.167732 66.500389,73.888268 
	C80.687180,73.166481 94.882538,72.611801 109.075256,72.008720 
	C115.615501,71.730812 121.227272,73.230042 123.995842,80.008575 
z"/>
<path fill="#E29A5C" opacity="1.000000" stroke="none" 
	d="
M61.546761,157.901352 
	C62.587795,161.211411 60.988529,166.068146 67.456894,166.243439 
	C67.862946,167.460495 67.945702,168.378632 68.027954,169.654907 
	C69.954979,178.211136 78.075073,184.015045 89.320580,185.122314 
	C90.210548,186.166397 90.783844,187.094360 91.289932,188.351852 
	C91.139305,189.121063 91.055878,189.560730 90.557045,189.998352 
	C79.053406,188.640991 69.368378,184.807037 62.903652,174.981552 
	C62.069588,173.713882 60.435467,172.972626 59.114227,171.549789 
	C58.999550,169.052994 58.942612,166.993942 58.885670,164.934875 
	C59.652065,162.617508 60.418457,160.300156 61.546761,157.901352 
z"/>
<path fill="#D7935A" opacity="1.000000" stroke="none" 
	d="
M125.988937,166.466156 
	C127.680573,164.918060 129.372208,163.369965 131.449722,161.455643 
	C132.545761,161.069290 133.255920,161.049179 133.966064,161.029068 
	C134.068314,162.940186 134.170563,164.851303 134.246582,167.609543 
	C134.101715,169.641464 133.983093,170.826248 133.496704,172.032684 
	C130.211502,173.743118 127.038094,175.110077 124.428215,177.185654 
	C118.421738,181.962479 112.503441,186.608856 104.294731,184.804260 
	C105.682159,183.379517 106.876953,182.204025 108.041702,181.011810 
	C108.011658,180.995087 107.981461,181.056885 108.268768,180.966858 
	C108.840401,180.596588 109.124718,180.316345 109.682632,179.872101 
	C114.666992,176.605911 119.456390,173.612885 124.028793,170.318680 
	C125.067978,169.569992 125.355461,167.777954 125.988937,166.466156 
z"/>
<path fill="#B57455" opacity="1.000000" stroke="none" 
	d="
M45.158432,226.986618 
	C45.105179,226.263962 45.051929,225.541290 45.137859,224.078613 
	C45.521530,221.423615 45.393265,219.355560 46.101437,217.630981 
	C47.065601,215.282928 48.668259,213.197067 50.027344,211.407791 
	C50.808331,219.702103 52.704094,226.787231 59.488892,232.175537 
	C63.322155,235.219833 65.864090,239.890121 68.641708,243.890625 
	C67.186539,244.255737 66.077362,244.558212 64.574219,244.771301 
	C63.115562,244.820312 62.050873,244.958679 60.986179,245.097046 
	C60.986179,245.097046 60.895641,245.189056 60.887238,244.752869 
	C59.990681,234.592239 52.486866,230.868973 45.158432,226.986618 
z"/>
<path fill="#B57455" opacity="1.000000" stroke="none" 
	d="
M128.880020,241.233337 
	C127.793701,233.298203 131.670013,228.712708 138.615295,225.498184 
	C141.323517,224.244751 143.741684,221.525269 145.307678,218.888885 
	C146.757416,216.448196 148.088440,216.007492 150.764008,216.911255 
	C151.736191,219.049179 152.349747,221.133377 152.577393,223.540619 
	C150.814331,224.070984 149.192688,223.885147 148.106506,224.560471 
	C145.021591,226.478455 142.169434,228.767990 139.199814,230.874817 
	C134.388687,234.288147 134.035278,235.929871 137.065689,241.135056 
	C135.298965,241.765976 133.532257,242.396896 131.144073,243.015198 
	C130.358795,242.969101 130.194977,242.935577 129.930450,242.665482 
	C129.513138,242.030396 129.196579,241.631866 128.880020,241.233337 
z"/>
<path fill="#A86D51" opacity="1.000000" stroke="none" 
	d="
M137.440643,241.092194 
	C134.035278,235.929871 134.388687,234.288147 139.199814,230.874817 
	C142.169434,228.767990 145.021591,226.478455 148.106506,224.560471 
	C149.192688,223.885147 150.814331,224.070984 152.514526,223.923737 
	C153.293213,233.167725 149.710617,237.237686 137.440643,241.092194 
z"/>
<path fill="#4F535A" opacity="1.000000" stroke="none" 
	d="
M124.351700,80.008682 
	C121.227272,73.230042 115.615501,71.730812 109.075256,72.008720 
	C94.882538,72.611801 80.687180,73.166481 66.500389,73.888268 
	C61.007538,74.167732 56.255047,76.276520 52.472866,80.864845 
	C52.780003,74.085274 59.769176,71.704872 67.941719,71.164795 
	C81.640182,70.259544 95.430000,70.738922 109.129013,69.838776 
	C117.265327,69.304153 122.829460,71.642441 125.966385,79.667145 
	C125.656517,79.987206 125.182030,79.998001 124.351700,80.008682 
z"/>
<path fill="#A86D51" opacity="1.000000" stroke="none" 
	d="
M151.832840,138.985062 
	C152.377777,148.747711 145.941284,155.730103 135.419556,155.824493 
	C134.851517,153.371765 134.935577,151.177597 135.416779,148.989349 
	C142.922302,148.375046 144.810547,146.128189 145.367126,138.096268 
	C147.711990,138.479218 149.772415,138.732147 151.832840,138.985062 
z"/>
<path fill="#A86D51" opacity="1.000000" stroke="none" 
	d="
M45.088913,227.392517 
	C52.486866,230.868973 59.990681,234.592239 60.831299,244.720673 
	C50.703445,245.989761 45.829582,236.886322 45.088913,227.392517 
z"/>
<path fill="#B57659" opacity="1.000000" stroke="none" 
	d="
M49.997131,210.998779 
	C48.668259,213.197067 47.065601,215.282928 46.101437,217.630981 
	C45.393265,219.355560 45.521530,221.423615 45.116875,223.716064 
	C45.099079,219.753479 45.201588,215.411560 45.404564,211.074326 
	C45.479721,209.468246 45.815197,207.875854 45.990002,206.272659 
	C46.551304,201.124786 47.092999,195.974762 48.001255,190.258148 
	C49.574490,189.783478 50.788727,189.876221 52.203270,190.120667 
	C52.651878,190.495697 52.900181,190.719009 52.901775,191.274506 
	C51.769089,198.070724 50.883110,204.534744 49.997131,210.998779 
z"/>
<path fill="#E2E3E3" opacity="1.000000" stroke="none" 
	d="
M60.988297,245.483063 
	C62.050873,244.958679 63.115562,244.820312 64.673737,245.152740 
	C66.147476,246.381561 67.167412,247.840363 68.101753,247.787476 
	C76.113243,247.333862 84.109245,246.606766 92.109879,245.961395 
	C93.685883,247.435379 95.261879,248.909378 96.826752,250.716705 
	C84.901482,251.036911 72.987328,251.023773 60.615471,251.021912 
	C60.435314,249.311813 60.712864,247.590439 60.988297,245.483063 
z"/>
<path fill="#A86D51" opacity="1.000000" stroke="none" 
	d="
M56.969208,154.079208 
	C50.911579,152.717072 46.862549,148.224030 46.044678,141.152496 
	C46.823078,136.630798 49.338383,137.181046 52.039894,138.348846 
	C53.063175,143.259308 55.199707,146.799728 59.996342,148.422470 
	C58.968189,150.543732 57.968700,152.311462 56.969208,154.079208 
z"/>
<path fill="#E2E3E3" opacity="1.000000" stroke="none" 
	d="
M138.822311,250.707825 
	C126.902321,251.035019 114.988922,251.026093 102.618057,251.030273 
	C102.109573,248.981384 102.058548,246.919357 102.422241,244.511200 
	C105.740211,245.463287 108.583984,247.688858 111.558296,247.879669 
	C119.375618,248.381134 127.249763,247.996902 135.101273,247.965515 
	C136.343811,248.767578 137.586365,249.569641 138.822311,250.707825 
z"/>
<path fill="#B57659" opacity="1.000000" stroke="none" 
	d="
M51.959652,137.986938 
	C49.338383,137.181046 46.823078,136.630798 46.033218,140.764679 
	C43.663490,134.536789 47.554245,126.947327 55.603371,122.971268 
	C56.156330,124.929848 56.353668,126.920258 56.256130,129.611786 
	C54.627388,132.870895 53.293518,135.428925 51.959652,137.986938 
z"/>
<path fill="#ECECEC" opacity="1.000000" stroke="none" 
	d="
M134.986084,247.659424 
	C127.249763,247.996902 119.375618,248.381134 111.558296,247.879669 
	C108.583984,247.688858 105.740211,245.463287 102.502609,244.078064 
	C102.122246,242.921310 102.076218,241.851547 102.257629,240.265228 
	C102.680290,239.572845 102.850571,239.375488 103.370285,239.093811 
	C104.499710,239.075882 105.254753,239.120743 106.032455,239.521835 
	C108.158607,244.770889 114.225357,247.834091 121.342239,246.819244 
	C124.406136,246.382355 128.652618,247.489258 130.031174,242.902039 
	C130.194977,242.935577 130.358795,242.969101 130.768311,243.053284 
	C132.299637,244.520432 133.585266,245.936890 134.986084,247.659424 
z"/>
<path fill="#B57659" opacity="1.000000" stroke="none" 
	d="
M151.893250,138.587677 
	C149.772415,138.732147 147.711990,138.479218 145.324844,137.749695 
	C143.701294,135.508469 142.404449,133.743820 141.107620,131.979187 
	C141.382538,129.595230 141.657455,127.211281 142.202271,124.433075 
	C142.472153,124.038811 142.896103,124.102654 142.896103,124.102654 
	C147.862732,127.546432 151.819214,131.639694 151.893250,138.587677 
z"/>
<path fill="#E2EDF5" opacity="1.000000" stroke="none" 
	d="
M58.571041,165.083160 
	C58.942612,166.993942 58.999550,169.052994 59.055447,171.995605 
	C59.258640,176.301636 59.462879,179.724136 59.282082,183.112366 
	C56.598160,182.715500 54.299278,182.352890 51.797867,181.767120 
	C51.374214,180.990494 51.153088,180.437027 50.931961,179.883545 
	C53.373444,174.999512 55.814926,170.115479 58.571041,165.083160 
z"/>
<path fill="#B57455" opacity="1.000000" stroke="none" 
	d="
M135.019623,148.983414 
	C134.935577,151.177597 134.851517,153.371765 135.016174,155.846649 
	C134.901627,157.526154 134.538345,158.924957 134.070557,160.676407 
	C133.255920,161.049179 132.545761,161.069290 131.484482,161.121231 
	C126.646942,155.992233 129.423477,151.183167 132.028839,146.004379 
	C133.210999,145.727829 134.214233,145.804047 135.553833,146.222656 
	C135.600006,147.371140 135.309814,148.177277 135.019623,148.983414 
z"/>
<path fill="#BBCBD8" opacity="1.000000" stroke="none" 
	d="
M139.359680,190.093445 
	C137.181000,190.448410 135.400375,190.721588 133.198410,190.596527 
	C133.022675,187.467270 133.268280,184.736252 133.840240,182.006760 
	C135.129227,181.626465 136.091888,181.244659 137.054550,180.862854 
	C140.839539,183.060349 141.152069,186.283844 139.359680,190.093445 
z"/>
<path fill="#BBCBD8" opacity="1.000000" stroke="none" 
	d="
M50.618137,180.010468 
	C51.153088,180.437027 51.374214,180.990494 51.797253,182.211090 
	C52.000427,185.241791 52.001694,187.605362 52.002960,189.968948 
	C50.788727,189.876221 49.574490,189.783478 48.124172,189.884003 
	C43.124454,188.676987 45.341167,185.251602 46.185352,182.770309 
	C46.595402,181.565079 48.872463,180.995010 50.618137,180.010468 
z"/>
<path fill="#4F535A" opacity="1.000000" stroke="none" 
	d="
M132.977402,80.955696 
	C131.472961,80.754311 129.968506,80.552933 128.168396,80.111588 
	C130.178513,77.844124 132.288376,74.515656 134.841614,74.131111 
	C137.778564,73.688782 141.107681,75.850433 144.296326,77.290672 
	C144.326157,77.700256 144.000000,78.000305 143.653320,77.922150 
	C137.942352,75.368034 135.531021,76.094452 132.977402,80.955696 
z"/>
<path fill="#B57455" opacity="1.000000" stroke="none" 
	d="
M57.197559,154.376190 
	C57.968700,152.311462 58.968189,150.543732 60.218491,148.126434 
	C60.653679,146.506180 60.838055,145.535477 61.022430,144.564758 
	C61.727482,144.588074 62.432533,144.611374 63.489326,144.616333 
	C63.802452,148.005264 66.331650,151.756592 62.196842,154.849976 
	C60.408642,154.921112 58.917274,154.797134 57.197559,154.376190 
z"/>
<path fill="#46474A" opacity="1.000000" stroke="none" 
	d="
M142.949615,123.655617 
	C142.896103,124.102654 142.472153,124.038811 142.257721,124.039680 
	C140.093018,117.518990 142.217102,111.499092 144.618988,105.261719 
	C144.273773,111.100037 143.638458,117.154305 142.949615,123.655617 
z"/>
<path fill="#E2E3E3" opacity="1.000000" stroke="none" 
	d="
M136.864197,180.494995 
	C136.091888,181.244659 135.129227,181.626465 133.795395,181.633270 
	C133.426834,180.507477 133.429443,179.756699 133.517395,178.633728 
	C133.689972,176.178024 133.777206,174.094528 133.864456,172.011047 
	C133.983093,170.826248 134.101715,169.641464 134.265564,168.017517 
	C134.874603,169.849579 135.530197,172.103088 135.973633,174.397568 
	C136.337845,176.282150 136.449966,178.215439 136.864197,180.494995 
z"/>
<path fill="#46474A" opacity="1.000000" stroke="none" 
	d="
M54.042778,108.438080 
	C57.129841,111.373894 58.256927,117.873161 56.144737,121.893471 
	C55.232281,117.687729 54.620914,113.272598 54.042778,108.438080 
z"/>
<path fill="#46474A" opacity="1.000000" stroke="none" 
	d="
M145.430557,101.818123 
	C145.343353,97.969849 145.535736,93.826500 146.077087,89.323166 
	C146.426071,88.963196 146.806793,88.965820 146.806793,88.965820 
	C146.441238,93.151558 146.075684,97.337303 145.430557,101.818123 
z"/>
<path fill="#4F535A" opacity="1.000000" stroke="none" 
	d="
M147.015045,88.628532 
	C146.806793,88.965820 146.426071,88.963196 146.236267,88.959023 
	C146.036697,88.519699 146.026917,88.084541 146.011688,86.913406 
	C145.337509,83.451714 144.668747,80.726006 144.000000,78.000305 
	C144.000000,78.000305 144.326157,77.700256 144.510284,77.570747 
	C147.826050,80.524467 148.849976,84.098953 147.015045,88.628532 
z"/>
<path fill="#46474A" opacity="1.000000" stroke="none" 
	d="
M53.097855,93.457809 
	C53.536758,95.515808 53.933735,97.997337 54.093628,100.796051 
	C53.589672,98.702606 53.322800,96.291969 53.097855,93.457809 
z"/>
<path fill="#46474A" opacity="1.000000" stroke="none" 
	d="
M52.088161,88.329178 
	C52.537930,87.990768 52.945698,87.990768 53.658653,87.987473 
	C53.743748,88.855095 53.523659,89.726013 53.077209,90.854630 
	C52.582619,90.297409 52.314392,89.482498 52.088161,88.329178 
z"/>
<path fill="#46474A" opacity="1.000000" stroke="none" 
	d="
M54.107735,103.400520 
	C54.313286,103.956367 54.477352,104.879013 54.364174,105.890396 
	C54.080036,105.241867 54.073143,104.504593 54.107735,103.400520 
z"/>
<path fill="#4D4EA6" opacity="1.000000" stroke="none" 
	d="
M106.009796,239.165604 
	C105.254753,239.120743 104.499710,239.075882 103.165260,239.025574 
	C102.585854,239.020126 102.153946,239.005173 102.153946,239.005173 
	C102.102386,236.965805 102.050827,234.926453 102.030823,232.082184 
	C103.384125,230.487717 104.705887,229.698135 106.492920,228.930054 
	C113.047791,228.982208 119.137375,229.012848 125.226967,229.043488 
	C125.696388,232.104767 126.165802,235.166031 126.290527,238.614197 
	C120.300179,239.055206 114.654510,239.109314 108.637299,239.094177 
	C107.513771,239.071808 106.761780,239.118698 106.009796,239.165604 
z"/>
<path fill="#6465B8" opacity="1.000000" stroke="none" 
	d="
M106.027649,228.908554 
	C104.705887,229.698135 103.384125,230.487717 102.031555,231.644653 
	C101.332130,228.650208 100.663528,225.288422 100.169510,221.270508 
	C102.748207,218.112579 100.989006,215.825775 99.080368,215.014145 
	C96.626717,213.970749 93.357376,213.330383 90.941528,214.097549 
	C87.936577,215.051804 87.396133,218.115295 89.043610,221.091965 
	C88.592873,223.935638 88.142143,226.779327 87.084824,229.617401 
	C85.313255,229.381989 84.148277,229.152161 82.988350,228.478027 
	C82.478577,222.085373 83.573166,216.526581 87.347351,211.379822 
	C88.206032,211.091003 88.705330,210.951691 89.651352,210.863968 
	C94.385330,210.903000 98.672585,210.890457 102.990433,211.269424 
	C104.023232,217.410126 105.025436,223.159348 106.027649,228.908554 
z"/>
<path fill="#EFEFEE" opacity="1.000000" stroke="none" 
	d="
M91.957397,245.634384 
	C84.109245,246.606766 76.113243,247.333862 68.101753,247.787476 
	C67.167412,247.840363 66.147476,246.381561 65.067703,245.242126 
	C66.077362,244.558212 67.186539,244.255737 69.050903,243.941467 
	C71.436928,243.749771 73.067787,243.569870 75.009537,243.693451 
	C81.801468,246.174866 85.044052,245.392288 88.024918,240.930801 
	C89.284920,242.389664 90.544922,243.848526 91.957397,245.634384 
z"/>
<path fill="#4D4EA6" opacity="1.000000" stroke="none" 
	d="
M82.983299,228.922333 
	C84.148277,229.152161 85.313255,229.381989 86.751984,229.841858 
	C87.018227,232.749802 87.010704,235.427689 86.492020,238.544357 
	C83.100235,238.989304 80.219620,238.995483 77.269180,238.580444 
	C77.184746,236.166855 77.170113,234.174484 77.423523,232.022827 
	C78.499725,230.900940 79.307899,229.938324 80.474754,228.976669 
	C81.550049,228.959198 82.266678,228.940765 82.983299,228.922333 
z"/>
<path fill="#5D60B2" opacity="1.000000" stroke="none" 
	d="
M89.496796,221.060089 
	C87.396133,218.115295 87.936577,215.051804 90.941528,214.097549 
	C93.357376,213.330383 96.626717,213.970749 99.080368,215.014145 
	C100.989006,215.825775 102.748207,218.112579 100.142258,220.861572 
	C96.610275,221.081894 93.280128,221.055038 89.496796,221.060089 
z"/>
<path fill="#FBFBFB" opacity="1.000000" stroke="none" 
	d="
M77.338989,239.001663 
	C80.219620,238.995483 83.100235,238.989304 86.413681,238.985107 
	C87.179688,239.450424 87.512871,239.913742 87.935486,240.653931 
	C85.044052,245.392288 81.801468,246.174866 75.279610,243.499298 
	C75.938850,241.668335 76.638916,240.334991 77.338989,239.001663 
z"/>
<path fill="#E2E3E3" opacity="1.000000" stroke="none" 
	d="
M102.090004,239.252808 
	C102.153946,239.005173 102.585854,239.020126 102.790878,239.088364 
	C102.850571,239.375488 102.680290,239.572845 102.330536,239.869110 
	C102.126038,239.826508 102.076050,239.663483 102.090004,239.252808 
z"/>
<path fill="#9D5C3D" opacity="1.000000" stroke="none" 
	d="
M135.416763,148.989349 
	C135.309814,148.177277 135.600006,147.371140 135.931732,146.244537 
	C141.277603,142.918488 139.329529,137.182709 141.014587,132.379395 
	C142.404449,133.743820 143.701294,135.508469 145.040405,137.619659 
	C144.810547,146.128189 142.922302,148.375046 135.416763,148.989349 
z"/>
<path fill="#9D5C3D" opacity="1.000000" stroke="none" 
	d="
M60.782028,144.335052 
	C60.838055,145.535477 60.653679,146.506180 60.247150,147.772919 
	C55.199707,146.799728 53.063175,143.259308 52.039894,138.348846 
	C53.293518,135.428925 54.627388,132.870895 56.229706,130.038086 
	C56.953133,132.868378 57.191853,136.027191 57.945057,139.058151 
	C58.389164,140.845276 59.648777,142.429749 60.782028,144.335052 
z"/>
<path fill="#464B52" opacity="1.000000" stroke="none" 
	d="
M143.653320,77.922150 
	C144.668747,80.726006 145.337509,83.451714 146.005341,86.586601 
	C141.915054,85.040283 137.825653,83.084778 133.356842,81.042480 
	C135.531021,76.094452 137.942352,75.368034 143.653320,77.922150 
z"/>
<path fill="#414042" opacity="1.000000" stroke="none" 
	d="
M105.951134,146.023849 
	C108.903625,147.802902 112.031609,149.359039 114.719093,151.474731 
	C115.741592,152.279678 116.302948,154.485764 116.020393,155.832016 
	C115.846642,156.659866 113.680389,157.074509 112.401291,157.658264 
	C112.261940,157.721878 112.067741,157.705978 111.907677,157.677704 
	C102.939774,156.093536 93.945786,156.218796 84.908745,157.015366 
	C83.718124,157.120316 81.731171,156.150208 81.337387,155.180710 
	C80.912048,154.133514 81.484970,151.896225 82.391479,151.239365 
	C85.146721,149.242981 88.273109,147.758820 91.941635,146.151672 
	C97.125565,149.833481 101.557037,149.147507 105.951134,146.023849 
z"/>
<path fill="#A6B6C3" opacity="1.000000" stroke="none" 
	d="
M125.539337,166.459854 
	C125.355461,167.777954 125.067978,169.569992 124.028793,170.318680 
	C119.456390,173.612885 114.666992,176.605911 109.407776,179.990814 
	C108.566696,180.534653 108.274071,180.795761 107.981461,181.056885 
	C107.981461,181.056885 108.011658,180.995087 107.665649,180.999512 
	C102.524864,184.519653 96.748711,178.680130 91.882492,182.572983 
	C91.484619,182.891266 89.892014,181.698654 88.845680,181.227798 
	C87.208946,180.491287 85.564629,179.771637 83.949921,179.026398 
	C83.976311,179.007980 83.992729,179.070221 83.770798,178.845261 
	C82.954323,178.435196 82.359787,178.250092 81.481842,177.895493 
	C76.808441,174.916245 72.418449,172.106506 68.028458,169.296768 
	C67.945702,168.378632 67.862946,167.460495 67.855286,166.242020 
	C71.698830,165.953552 75.467285,165.965424 79.785889,166.201447 
	C80.544487,166.670593 80.757759,166.911316 80.984970,167.516556 
	C82.095558,169.831940 82.776474,172.263519 84.368683,173.644180 
	C92.870201,181.016235 113.876266,179.359573 117.041115,166.808777 
	C119.723991,166.690369 122.406868,166.571960 125.539337,166.459854 
z"/>
<path fill="#444345" opacity="1.000000" stroke="none" 
	d="
M76.089607,131.168121 
	C70.259560,129.974838 70.128708,129.751282 72.474365,124.309586 
	C78.188133,125.269135 84.027740,126.141434 89.818390,127.265846 
	C92.934120,127.870850 94.060822,131.109970 91.521439,132.456436 
	C88.180298,134.228027 89.301582,136.737793 88.606003,139.643219 
	C86.114136,142.204514 83.793510,144.220123 80.917450,141.745987 
	C77.444962,138.758804 78.756386,135.410538 81.400978,131.944931 
	C79.292671,131.636581 77.691139,131.402359 76.089607,131.168121 
z"/>
<path fill="#414042" opacity="1.000000" stroke="none" 
	d="
M109.087433,141.922821 
	C108.309380,139.778763 107.512184,137.641418 106.758430,135.488861 
	C105.941406,133.155579 104.559166,130.594955 108.663681,129.946899 
	C114.484123,129.027908 120.305809,128.116806 126.471550,127.148193 
	C126.889702,129.053253 127.224739,130.579620 127.614395,132.354843 
	C126.041718,132.766861 124.805794,133.090652 122.824692,133.564590 
	C120.661476,133.934204 119.243439,134.153687 117.826851,134.372940 
	C119.084488,142.401566 116.520470,144.484909 109.087433,141.922821 
z"/>
<path fill="#824C34" opacity="1.000000" stroke="none" 
	d="
M80.975845,167.147766 
	C80.757759,166.911316 80.544487,166.670593 80.213989,166.218201 
	C90.576775,166.253250 101.061615,166.495728 111.716583,167.149902 
	C110.458893,168.401657 108.883202,169.064362 107.627762,170.111176 
	C100.618820,175.955383 93.725060,176.509430 86.603210,170.229202 
	C85.038445,168.849350 82.867592,168.156815 80.975845,167.147766 
z"/>
<path fill="#9DAAB6" opacity="1.000000" stroke="none" 
	d="
M80.984970,167.516556 
	C82.867592,168.156815 85.038445,168.849350 86.603210,170.229202 
	C93.725060,176.509430 100.618820,175.955383 107.627762,170.111176 
	C108.883202,169.064362 110.458893,168.401657 112.131393,167.294861 
	C113.752640,166.863831 115.129211,166.699524 116.773453,166.671982 
	C113.876266,179.359573 92.870201,181.016235 84.368683,173.644180 
	C82.776474,172.263519 82.095558,169.831940 80.984970,167.516556 
z"/>
<path fill="#955537" opacity="1.000000" stroke="none" 
	d="
M105.926849,145.649826 
	C101.557037,149.147507 97.125565,149.833481 92.304001,146.073563 
	C91.674759,141.007111 94.930153,139.537827 98.881119,139.251114 
	C102.978477,138.953781 105.470581,141.042175 105.926849,145.649826 
z"/>
<path fill="#F4F3F3" opacity="1.000000" stroke="none" 
	d="
M75.921951,131.498795 
	C77.691139,131.402359 79.292671,131.636581 81.400978,131.944931 
	C78.756386,135.410538 77.444962,138.758804 80.917450,141.745987 
	C83.793510,144.220123 86.114136,142.204514 88.560577,140.066498 
	C88.551331,144.628662 85.390701,146.011902 81.439224,145.986313 
	C76.863487,145.956680 74.441345,142.933990 74.042213,138.816269 
	C73.823875,136.563812 75.133621,134.163239 75.921951,131.498795 
z"/>
<path fill="#F4F3F3" opacity="1.000000" stroke="none" 
	d="
M109.126228,142.276321 
	C116.520470,144.484909 119.084488,142.401566 117.826851,134.372940 
	C119.243439,134.153687 120.661476,133.934204 122.522217,133.729797 
	C124.892532,139.538452 123.700203,143.894394 119.140083,146.046494 
	C114.926476,148.035065 111.479897,146.721954 109.126228,142.276321 
z"/>
<path fill="#EDA160" opacity="1.000000" stroke="none" 
	d="
M133.432068,179.005936 
	C133.429443,179.756699 133.426834,180.507477 133.469055,181.631744 
	C133.268280,184.736252 133.022675,187.467270 132.809662,190.659180 
	C132.227509,194.796265 131.612747,198.472427 130.517578,202.578491 
	C120.992119,202.366791 111.947083,201.725174 102.716034,201.039246 
	C102.530014,200.994919 102.152985,200.929459 102.175644,200.481613 
	C102.073677,197.026108 101.949059,194.018463 101.907639,190.757019 
	C102.046982,190.334259 102.103119,190.165298 102.570908,189.995117 
	C111.246841,189.335709 118.859108,186.905380 125.804115,182.225006 
	C128.049927,180.711517 130.873032,180.054657 133.432068,179.005936 
z"/>
<path fill="#676AC4" opacity="1.000000" stroke="none" 
	d="
M106.492920,228.930054 
	C105.025436,223.159348 104.023232,217.410126 103.064240,211.067566 
	C103.248657,210.214706 103.448235,210.012970 103.940475,210.199738 
	C111.419975,211.701431 118.665199,212.872406 125.910416,214.043381 
	C125.758987,218.776596 125.607559,223.509811 125.341553,228.643250 
	C119.137375,229.012848 113.047791,228.982208 106.492920,228.930054 
z"/>
<path fill="#D68B4B" opacity="1.000000" stroke="none" 
	d="
M126.291168,214.002029 
	C118.665199,212.872406 111.419975,211.701431 103.934204,209.810730 
	C103.429771,206.421860 103.165909,203.752701 102.902046,201.083557 
	C111.947083,201.725174 120.992119,202.366791 130.493958,202.994080 
	C129.301682,206.553253 131.939621,211.797226 126.291168,214.002029 
z"/>
<path fill="#FBFBFB" opacity="1.000000" stroke="none" 
	d="
M109.008850,239.163437 
	C114.654510,239.109314 120.300179,239.055206 126.403000,239.008453 
	C127.191032,239.482681 127.521904,239.949524 127.792976,241.035782 
	C122.440926,245.625351 116.731873,244.317841 111.148552,242.677277 
	C110.175186,242.391296 109.709183,240.378616 109.008850,239.163437 
z"/>
<path fill="#F4F3F3" opacity="1.000000" stroke="none" 
	d="
M108.637299,239.094177 
	C109.709183,240.378616 110.175186,242.391296 111.148552,242.677277 
	C116.731873,244.317841 122.440926,245.625351 127.871613,241.313797 
	C128.010056,240.972397 128.438889,241.124542 128.659454,241.178940 
	C129.196579,241.631866 129.513138,242.030396 129.930450,242.665482 
	C128.652618,247.489258 124.406136,246.382355 121.342239,246.819244 
	C114.225357,247.834091 108.158607,244.770889 106.032455,239.521835 
	C106.761780,239.118698 107.513771,239.071808 108.637299,239.094177 
z"/>
<path fill="#EDA160" opacity="1.000000" stroke="none" 
	d="
M59.667118,183.146622 
	C59.462879,179.724136 59.258640,176.301636 59.113182,172.433334 
	C60.435467,172.972626 62.069588,173.713882 62.903652,174.981552 
	C69.368378,184.807037 79.053406,188.640991 90.657143,190.242523 
	C91.223228,190.657288 91.273819,190.825806 91.267120,191.217773 
	C91.209816,191.441223 91.291824,191.896561 91.240540,192.349869 
	C91.143272,195.518341 91.097298,198.233505 90.904716,201.001007 
	C90.758110,201.053329 90.464622,201.157227 90.005219,201.131134 
	C80.661163,201.787308 71.776512,202.469574 62.685871,202.815796 
	C61.924957,199.136871 61.370029,195.794006 60.798344,192.081955 
	C60.410095,188.857391 60.038605,186.002014 59.667118,183.146622 
z"/>
<path fill="#D7935A" opacity="1.000000" stroke="none" 
	d="
M68.027954,169.654907 
	C72.418449,172.106506 76.808441,174.916245 81.689377,178.162567 
	C82.784462,178.756180 83.388596,178.913208 83.992729,179.070221 
	C83.992729,179.070221 83.976311,179.007980 83.875717,179.369934 
	C85.518044,181.490005 87.260971,183.248108 89.003906,185.006195 
	C78.075073,184.015045 69.954979,178.211136 68.027954,169.654907 
z"/>
<path fill="#D2DAE0" opacity="1.000000" stroke="none" 
	d="
M89.320572,185.122314 
	C87.260971,183.248108 85.518044,181.490005 83.849319,179.388367 
	C85.564629,179.771637 87.208946,180.491287 88.845680,181.227798 
	C89.892014,181.698654 91.484619,182.891266 91.882492,182.572983 
	C96.748711,178.680130 102.524864,184.519653 107.695694,181.016235 
	C106.876953,182.204025 105.682159,183.379517 103.979858,184.912689 
	C102.931953,186.187820 102.391548,187.105270 101.408485,188.013184 
	C97.762932,188.009857 94.560036,188.016083 91.357147,188.022308 
	C90.783844,187.094360 90.210548,186.166397 89.320572,185.122314 
z"/>
<path fill="#E2EDF5" opacity="1.000000" stroke="none" 
	d="
M91.289932,188.351852 
	C94.560036,188.016083 97.762932,188.009857 101.464981,188.341583 
	C102.029190,189.118484 102.094231,189.557419 102.159264,189.996353 
	C102.103119,190.165298 102.046982,190.334259 101.467117,190.754684 
	C97.982162,191.008392 95.020927,191.010651 91.876053,191.000854 
	C91.692421,190.988815 91.324417,190.994339 91.324417,190.994339 
	C91.273819,190.825806 91.223228,190.657288 91.072548,190.244583 
	C91.055878,189.560730 91.139305,189.121063 91.289932,188.351852 
z"/>
<path fill="#E1995B" opacity="1.000000" stroke="none" 
	d="
M102.570908,189.995117 
	C102.094231,189.557419 102.029190,189.118484 101.907654,188.351135 
	C102.391548,187.105270 102.931953,186.187820 103.787224,185.161926 
	C112.503441,186.608856 118.421738,181.962479 124.428215,177.185654 
	C127.038094,175.110077 130.211502,173.743118 133.496704,172.032684 
	C133.777206,174.094528 133.689972,176.178024 133.517395,178.633728 
	C130.873032,180.054657 128.049927,180.711517 125.804115,182.225006 
	C118.859108,186.905380 111.246841,189.335709 102.570908,189.995117 
z"/>
<path fill="#D2DAE0" opacity="1.000000" stroke="none" 
	d="
M108.268768,180.966858 
	C108.274071,180.795761 108.566696,180.534653 109.134178,180.154816 
	C109.124718,180.316345 108.840401,180.596588 108.268768,180.966858 
z"/>
<path fill="#BE7958" opacity="1.000000" stroke="none" 
	d="
M60.815102,192.451126 
	C61.370029,195.794006 61.924957,199.136871 62.711491,203.231781 
	C62.677666,208.158813 63.225075,211.546417 68.774750,211.156174 
	C69.802307,211.083893 70.921600,212.316437 72.149155,213.152161 
	C72.559883,213.572647 72.820015,213.787720 73.040604,214.006241 
	C73.001053,214.009689 72.993881,213.930603 73.141602,214.138535 
	C73.550446,214.561722 73.811577,214.776978 74.045410,214.972321 
	C74.018105,214.952393 74.066368,214.905060 74.045197,215.306824 
	C75.067848,221.199768 76.111671,226.690948 77.155487,232.182114 
	C77.170113,234.174484 77.184746,236.166855 77.269180,238.580444 
	C76.638916,240.334991 75.938850,241.668335 74.968712,243.195831 
	C73.067787,243.569870 71.436928,243.749771 69.396881,243.878830 
	C65.864090,239.890121 63.322155,235.219833 59.488892,232.175537 
	C52.704094,226.787231 50.808331,219.702103 50.027344,211.407791 
	C50.883110,204.534744 51.769089,198.070724 53.267105,191.276566 
	C56.191128,191.447998 58.503117,191.949554 60.815102,192.451126 
z"/>
<path fill="#BECFDE" opacity="1.000000" stroke="none" 
	d="
M60.798344,192.081955 
	C58.503117,191.949554 56.191128,191.447998 53.513809,190.944397 
	C52.900181,190.719009 52.651878,190.495697 52.203270,190.120667 
	C52.001694,187.605362 52.000427,185.241791 51.999779,182.434235 
	C54.299278,182.352890 56.598160,182.715500 59.282082,183.112366 
	C60.038605,186.002014 60.410095,188.857391 60.798344,192.081955 
z"/>
<path fill="#D68B4B" opacity="1.000000" stroke="none" 
	d="
M71.998558,212.946747 
	C70.921600,212.316437 69.802307,211.083893 68.774750,211.156174 
	C63.225075,211.546417 62.677666,208.158813 62.917477,203.567825 
	C71.776512,202.469574 80.661163,201.787308 89.979843,201.544327 
	C90.010796,204.926544 89.607712,207.869461 89.204628,210.812378 
	C88.705330,210.951691 88.206032,211.091003 86.948975,211.362732 
	C81.809280,212.039185 77.427361,212.583221 72.784286,213.078827 
	C72.348282,213.002487 72.173416,212.974625 71.998558,212.946747 
z"/>
<path fill="#BECFDE" opacity="1.000000" stroke="none" 
	d="
M89.651352,210.863953 
	C89.607712,207.869461 90.010796,204.926544 90.439255,201.570435 
	C90.464622,201.157227 90.758110,201.053329 91.361694,201.016571 
	C95.361183,200.963028 98.757088,200.946243 102.152985,200.929459 
	C102.152985,200.929459 102.530014,200.994919 102.716034,201.039246 
	C103.165909,203.752701 103.429771,206.421860 103.699913,209.480011 
	C103.448235,210.012970 103.248657,210.214706 103.033646,210.676056 
	C98.672585,210.890457 94.385330,210.903000 89.651352,210.863953 
z"/>
<path fill="#6868BF" opacity="1.000000" stroke="none" 
	d="
M73.045433,213.127274 
	C77.427361,212.583221 81.809280,212.039185 86.589584,211.512238 
	C83.573166,216.526581 82.478577,222.085373 82.988350,228.478027 
	C82.266678,228.940765 81.550049,228.959198 80.556931,228.616440 
	C81.887024,222.093231 78.348076,218.326279 74.066368,214.905060 
	C74.066368,214.905060 74.018105,214.952393 73.952866,214.720795 
	C73.589706,214.302994 73.291794,214.116791 72.993881,213.930603 
	C72.993881,213.930603 73.001053,214.009689 73.024132,213.787476 
	C73.047211,213.565277 73.045433,213.127274 73.045433,213.127274 
z"/>
<path fill="#A46145" opacity="1.000000" stroke="none" 
	d="
M74.045197,215.306824 
	C78.348076,218.326279 81.887024,222.093231 80.198257,228.615479 
	C79.307899,229.938324 78.499725,230.900940 77.423523,232.022827 
	C76.111671,226.690948 75.067848,221.199768 74.045197,215.306824 
z"/>
<path fill="#D2DAE0" opacity="1.000000" stroke="none" 
	d="
M83.770798,178.845261 
	C83.388596,178.913208 82.784462,178.756180 81.972794,178.332062 
	C82.359787,178.250092 82.954323,178.435196 83.770798,178.845261 
z"/>
<path fill="#E6F2FB" opacity="1.000000" stroke="none" 
	d="
M102.175644,200.481613 
	C98.757088,200.946243 95.361183,200.963028 91.508301,200.964233 
	C91.097298,198.233505 91.143272,195.518341 91.389023,192.223373 
	C91.764343,191.447235 91.921310,191.237015 92.059685,191.012909 
	C95.020927,191.010651 97.982162,191.008392 101.383926,191.008469 
	C101.949059,194.018463 102.073677,197.026108 102.175644,200.481613 
z"/>
<path fill="#D2DAE0" opacity="1.000000" stroke="none" 
	d="
M91.876053,191.000854 
	C91.921310,191.237015 91.764343,191.447235 91.440308,191.770065 
	C91.291824,191.896561 91.209816,191.441223 91.267120,191.217773 
	C91.324417,190.994339 91.692421,190.988815 91.876053,191.000854 
z"/>
<path fill="#A46145" opacity="1.000000" stroke="none" 
	d="
M72.784286,213.078827 
	C73.045433,213.127274 73.047211,213.565277 73.063675,213.784027 
	C72.820015,213.787720 72.559883,213.572647 72.149155,213.152161 
	C72.173416,212.974625 72.348282,213.002487 72.784286,213.078827 
z"/>
<path fill="#A46145" opacity="1.000000" stroke="none" 
	d="
M73.141602,214.138535 
	C73.291794,214.116791 73.589706,214.302994 73.980164,214.740723 
	C73.811577,214.776978 73.550446,214.561722 73.141602,214.138535 
z"/>
</svg>