<svg version="1.1" id="Layer_1" xmlns="http://www.w3.org/2000/svg" xmlns:xlink="http://www.w3.org/1999/xlink" x="0px" y="0px"
	 width="100%" viewBox="0 0 192 256" enable-background="new 0 0 192 256" xml:space="preserve">
<path fill="#000000" opacity="1.000000" stroke="none" 
	d="
M59.000000,257.000000 
	C39.676983,257.000000 20.353966,257.000000 1.015474,257.000000 
	C1.015474,171.722519 1.015474,86.445030 1.015474,1.083772 
	C64.909904,1.083772 128.819962,1.083772 192.865005,1.083772 
	C192.865005,86.333191 192.865005,171.666565 192.865005,257.000000 
	C173.917007,257.000000 154.927170,257.000000 135.466156,256.592072 
	C134.703720,254.430954 134.412445,252.677750 133.970459,250.618652 
	C132.218903,249.533508 130.618073,248.754257 128.876541,247.701111 
	C127.820221,246.609589 126.904587,245.791977 125.891319,244.630753 
	C125.138695,242.532806 124.483711,240.778488 123.900604,238.573303 
	C123.924446,235.082764 123.876411,232.043060 123.898293,228.579041 
	C124.261108,221.516800 124.554008,214.878906 124.916275,207.846283 
	C124.009514,205.728745 127.697662,202.363007 123.180725,201.563202 
	C124.212082,197.082062 125.105583,192.973633 126.306686,189.023102 
	C129.696182,192.148117 132.778076,195.115265 135.875610,198.435501 
	C135.980515,200.043533 135.676392,202.153061 136.226715,202.406387 
	C138.691727,203.541092 140.398651,207.448639 144.395325,204.993958 
	C153.010071,208.111557 161.195984,211.336548 169.511749,214.182068 
	C175.697296,216.298660 181.294617,214.530640 184.386063,209.945908 
	C185.496552,206.536026 186.281158,203.330002 187.397903,199.905640 
	C187.804962,196.846512 189.332306,193.672379 185.569122,191.391357 
	C183.107285,190.101639 180.959595,189.060883 178.774246,187.663315 
	C177.267014,185.921417 175.965851,183.635956 174.295654,183.323578 
	C169.669785,182.458344 164.925018,182.584061 160.605087,185.978210 
	C158.826004,186.406860 157.416260,186.778091 155.710922,186.967773 
	C153.978882,185.847809 152.542450,184.909363 150.920990,183.662018 
	C149.968094,183.120667 148.820724,183.132355 148.490189,182.618561 
	C144.565811,176.518387 140.763214,170.339905 136.948624,163.778198 
	C137.008926,162.303741 137.049286,161.233017 137.456146,160.301453 
	C143.881836,160.664871 149.941025,160.889114 156.374634,161.066071 
	C160.264008,159.558136 160.889557,157.761292 158.217957,154.575119 
	C155.457672,151.283188 153.313416,147.474686 151.075958,143.582092 
	C151.857574,142.318863 152.475601,141.373505 153.066071,140.411240 
	C156.316254,135.114639 156.307404,128.760315 153.031158,124.520432 
	C152.346100,122.782364 151.682129,121.413765 151.317932,119.901978 
	C152.037048,118.806915 152.456375,117.855026 152.918976,116.489380 
	C152.943954,114.409729 152.925659,112.743828 152.964661,110.671417 
	C152.995667,109.172302 152.969391,108.079689 152.974792,106.584747 
	C152.970688,105.108116 152.934921,104.033813 152.853516,102.711395 
	C152.547287,102.257301 152.286652,102.051315 151.999359,101.624084 
	C151.972687,101.402847 151.854050,100.973244 151.900085,100.617218 
	C151.311798,98.790840 150.677460,97.320503 150.014618,95.628555 
	C149.986084,95.406960 149.861282,94.977890 149.881744,94.621033 
	C147.284027,90.455231 144.665863,86.646294 141.914719,82.573151 
	C140.909088,81.523270 140.036438,80.737572 138.983994,79.661583 
	C130.829483,70.957138 120.769432,67.170959 109.490585,65.660919 
	C92.587982,63.397942 77.785912,67.093361 65.945953,79.963646 
	C65.982956,79.982719 65.944382,79.908936 65.649521,80.066353 
	C63.869244,82.132431 62.383831,84.041092 60.932373,85.968369 
	C60.966331,85.986977 60.946857,85.912018 60.642235,86.082771 
	C58.257732,92.144661 56.177845,98.035805 54.047333,104.358215 
	C53.943996,106.806679 53.891281,108.823868 53.566383,111.036987 
	C52.248104,113.153244 51.202003,115.073547 50.090145,117.405457 
	C47.595680,123.629044 50.204094,128.775864 51.998131,134.361664 
	C50.199310,140.245499 51.069450,141.514389 56.896969,142.471375 
	C54.476650,146.477859 51.904663,150.038605 49.742741,153.832993 
	C48.774395,155.532532 47.885941,157.912659 48.363708,159.582703 
	C48.694202,160.737930 51.358013,161.541641 53.101730,161.891251 
	C54.996529,162.271164 57.033184,161.943542 59.074394,162.318573 
	C59.162228,163.511276 59.183651,164.309830 58.996811,165.377197 
	C53.871773,169.477966 48.954994,173.309891 43.652863,177.084473 
	C41.451561,178.026428 39.635609,179.025742 37.457581,180.006790 
	C35.073418,179.297455 33.051331,178.606369 30.866348,177.565979 
	C26.924004,176.496429 23.152977,175.346817 19.360849,175.272400 
	C17.893061,175.243591 16.377480,177.649933 14.524839,178.987061 
	C12.092704,180.314926 10.019398,181.602646 7.555172,182.930695 
	C3.434689,183.007706 3.913623,185.573029 4.080580,188.387360 
	C5.022920,192.545593 5.557938,196.534286 7.207697,199.990967 
	C8.322436,202.326645 11.007515,203.912857 13.202547,205.907272 
	C13.414907,205.980255 13.858999,206.047150 13.957861,206.288574 
	C14.360081,206.642776 14.663439,206.755554 15.386074,206.926163 
	C17.213247,206.945389 18.621143,206.906784 20.290937,206.873566 
	C20.746988,206.599792 20.941143,206.320648 21.530163,206.024902 
	C29.411213,203.639938 36.897396,201.271561 44.594810,199.176208 
	C46.805496,201.009888 52.962982,199.967316 53.764595,197.841629 
	C53.924828,197.416748 53.309948,196.699585 53.367905,195.958511 
	C57.449791,193.240341 61.216248,190.680832 65.106094,188.089203 
	C65.229477,188.057068 65.324959,187.820618 65.579681,188.071045 
	C66.930496,192.842316 68.026573,197.363174 68.950012,202.255432 
	C68.888718,205.787155 69.000076,208.947479 69.069206,212.563950 
	C69.408669,218.348099 69.790359,223.676102 70.104996,229.454590 
	C70.082352,232.944855 70.126770,235.984604 70.098679,239.383209 
	C69.354294,241.486404 68.682404,243.230743 67.754929,245.124710 
	C66.990570,245.837082 66.481789,246.399841 65.672539,247.118835 
	C63.540359,248.492004 61.708649,249.708954 59.530205,251.131393 
	C59.122314,253.224594 59.061157,255.112305 59.000000,257.000000 
z"/>
<path fill="#000000" opacity="1.000000" stroke="none" 
	d="
M105.000000,257.000000 
	C99.977905,257.000000 94.955818,257.000000 89.464661,256.572571 
	C88.942146,254.439560 88.888695,252.733978 88.906418,250.628174 
	C88.928177,249.148911 88.878761,248.069855 88.901070,246.552643 
	C88.925896,243.739807 88.879005,241.365143 88.896759,238.540863 
	C88.916656,235.062698 88.871918,232.034149 88.894653,228.600479 
	C89.345093,225.812271 89.728073,223.429199 90.567520,221.029541 
	C95.313057,221.024719 99.602142,221.036484 103.938065,221.454605 
	C104.380882,224.242508 104.776848,226.624054 105.106163,229.454987 
	C105.082314,232.933029 105.125122,235.961685 105.091843,239.431763 
	C105.067680,242.245743 105.119606,244.618301 105.095085,247.390106 
	C105.067383,248.869064 105.116119,249.948792 105.090012,251.449249 
	C105.010117,253.579987 105.005058,255.289993 105.000000,257.000000 
z"/>
<path fill="#D6D6D6" opacity="1.000000" stroke="none" 
	d="
M88.835243,251.028397 
	C88.888695,252.733978 88.942146,254.439560 88.997803,256.572571 
	C79.312439,257.000000 69.624878,257.000000 59.468658,257.000000 
	C59.061157,255.112305 59.122314,253.224594 60.006031,251.145508 
	C70.164139,250.978867 79.499695,251.003632 88.835243,251.028397 
z"/>
<path fill="#D6D6D6" opacity="1.000000" stroke="none" 
	d="
M105.468658,257.000000 
	C105.005058,255.289993 105.010117,253.579987 105.548111,251.442047 
	C115.427757,250.984268 124.774452,250.954407 134.121155,250.924561 
	C134.412445,252.677750 134.703720,254.430954 134.997498,256.592072 
	C125.312439,257.000000 115.624878,257.000000 105.468658,257.000000 
z"/>
<path fill="#3D3F42" opacity="1.000000" stroke="none" 
	d="
M152.943115,106.987083 
	C152.969391,108.079689 152.995667,109.172302 152.732697,110.932175 
	C152.587540,113.367340 152.731613,115.135246 152.875702,116.903145 
	C152.456375,117.855026 152.037048,118.806915 151.009155,119.759911 
	C149.150604,118.822670 147.900620,117.884315 145.974976,116.438751 
	C145.420029,119.050362 145.031891,120.876930 144.462616,123.006256 
	C143.177017,125.568550 142.072556,127.828087 140.543884,130.079376 
	C134.321640,129.904755 133.137375,128.473206 133.952026,122.804420 
	C134.203873,121.051994 134.234329,119.267761 134.366135,117.498093 
	C133.870605,117.467819 133.375076,117.437538 132.879562,117.407265 
	C132.226547,118.600288 131.491425,120.863861 130.933197,120.821045 
	C125.228882,120.383507 118.754585,121.053848 114.053940,118.521591 
	C106.711510,114.566231 100.575989,108.370445 93.972534,103.158142 
	C87.343506,104.628998 79.980782,106.262657 72.471260,107.928886 
	C72.403336,108.193359 72.196655,108.662132 72.175461,109.139145 
	C72.086769,111.135307 72.036041,113.133652 72.003601,115.131729 
	C71.904144,121.256897 71.103218,122.041771 64.804413,121.646118 
	C63.708080,118.914337 62.833973,116.452240 62.014397,113.568634 
	C62.068928,111.245079 62.068928,109.343040 62.068928,106.512817 
	C58.702900,108.282967 56.270733,109.562004 53.838566,110.841049 
	C53.891281,108.823868 53.943996,106.806679 54.304310,104.140289 
	C56.406288,99.992027 58.200665,96.492981 60.286049,92.828705 
	C66.701004,88.185623 72.211967,82.008881 79.060051,79.538025 
	C102.704300,71.006927 136.593094,76.538414 149.976700,105.022034 
	C150.407639,105.939171 151.929688,106.343628 152.943115,106.987083 
M130.293045,98.058228 
	C133.682571,99.694702 137.072098,101.331177 140.579422,103.024521 
	C140.717422,99.298225 138.526306,94.965073 134.045837,91.977959 
	C116.805344,80.483841 98.257492,78.699753 79.023369,85.941368 
	C75.428970,87.294655 72.675095,90.880386 69.533325,93.435875 
	C69.842224,93.846474 70.151115,94.257072 70.460014,94.667664 
	C90.494675,89.839676 110.199753,90.833565 130.293045,98.058228 
M119.193718,115.915283 
	C121.466843,115.915283 123.739960,115.915283 126.013084,115.915283 
	C124.309265,114.237526 122.629356,113.128464 120.784706,112.634033 
	C117.747238,111.819885 117.097389,113.206512 119.193718,115.915283 
z"/>
<path fill="#464B51" opacity="1.000000" stroke="none" 
	d="
M152.974792,106.584747 
	C151.929688,106.343628 150.407639,105.939171 149.976700,105.022034 
	C136.593094,76.538414 102.704300,71.006927 79.060051,79.538025 
	C72.211967,82.008881 66.701004,88.185623 60.301468,92.432968 
	C60.332870,90.105652 60.639862,88.008835 60.946857,85.912018 
	C60.946857,85.912018 60.966331,85.986977 61.290276,85.935783 
	C63.057610,83.892708 64.500999,81.900826 65.944382,79.908936 
	C65.944382,79.908936 65.982956,79.982719 66.319504,79.971848 
	C68.549217,79.001488 70.711868,78.362617 72.293846,77.032898 
	C88.042702,63.795315 111.979095,64.775948 128.544464,74.032097 
	C132.082260,76.008888 135.623901,77.978790 139.163773,79.951874 
	C140.036438,80.737572 140.909088,81.523270 141.908997,82.953392 
	C144.644592,87.391182 147.252945,91.184540 149.861282,94.977890 
	C149.861282,94.977890 149.986084,95.406960 150.001953,96.024330 
	C150.629898,98.085548 151.241974,99.529396 151.854050,100.973244 
	C151.854050,100.973244 151.972687,101.402847 152.095215,101.846695 
	C152.379303,102.580330 152.606430,102.803322 152.899139,102.959511 
	C152.934921,104.033813 152.970688,105.108116 152.974792,106.584747 
z"/>
<path fill="#3B3D40" opacity="1.000000" stroke="none" 
	d="
M123.042862,201.935898 
	C127.697662,202.363007 124.009514,205.728745 124.665817,208.109314 
	C124.111496,211.122208 122.990906,212.121277 120.454872,212.064026 
	C114.649437,211.932953 108.837090,212.107834 102.567230,212.100479 
	C98.395241,212.081192 94.683578,212.119904 90.507339,212.111145 
	C83.065651,212.078384 76.088547,212.093094 69.111435,212.107803 
	C69.000076,208.947479 68.888718,205.787155 69.373642,202.289169 
	C71.671127,201.909637 73.372322,201.867767 75.533058,201.884033 
	C89.639473,201.907349 103.286346,201.872513 117.366798,201.890839 
	C119.547874,201.941299 121.295364,201.938599 123.042862,201.935898 
z"/>
<path fill="#39B173" opacity="1.000000" stroke="none" 
	d="
M65.324959,187.820618 
	C65.324959,187.820618 65.229477,188.057068 65.028961,187.650482 
	C63.363651,183.560226 60.828621,183.513214 57.750565,185.113098 
	C55.184345,186.446945 52.581848,187.710968 49.773232,188.818420 
	C49.367065,188.089767 49.183090,187.548630 49.215874,186.750183 
	C52.721874,184.583206 55.885685,182.397308 59.331562,180.832581 
	C63.811069,178.798523 65.818024,175.538574 64.698898,170.729156 
	C64.248276,168.792603 63.571743,166.908600 63.139450,164.686935 
	C63.491722,163.487366 63.702568,162.601547 64.189209,161.481293 
	C67.917412,161.510193 71.369820,161.773529 74.859573,162.396637 
	C74.892731,163.239929 74.888550,163.723434 74.669174,164.518066 
	C72.199486,174.252197 78.295387,178.677353 84.877609,182.964340 
	C81.753319,184.177597 78.878662,185.088562 75.623245,186.013458 
	C71.903137,186.214111 71.993828,188.638672 71.692139,190.837418 
	C69.367790,189.720184 67.346375,188.770401 65.324959,187.820618 
z"/>
<path fill="#6467BF" opacity="1.000000" stroke="none" 
	d="
M103.027550,212.158478 
	C108.837090,212.107834 114.649437,211.932953 120.454872,212.064026 
	C122.990906,212.121277 124.111496,211.122208 124.596436,208.504028 
	C124.554008,214.878906 124.261108,221.516800 123.441513,228.578705 
	C117.000816,229.003647 111.086815,229.004623 105.172821,229.005600 
	C104.776848,226.624054 104.380882,224.242508 104.247200,221.273499 
	C108.549507,217.055588 103.138969,215.067474 103.027550,212.158478 
z"/>
<path fill="#6467BF" opacity="1.000000" stroke="none" 
	d="
M69.069206,212.563950 
	C76.088547,212.093094 83.065651,212.078384 90.452766,212.448364 
	C90.238525,215.536530 85.505173,217.863922 90.111053,221.046112 
	C89.728073,223.429199 89.345093,225.812271 88.437943,228.599854 
	C81.999855,229.004257 76.085953,229.004181 70.172043,229.004105 
	C69.790359,223.676102 69.408669,218.348099 69.069206,212.563950 
z"/>
<path fill="#BD7958" opacity="1.000000" stroke="none" 
	d="
M178.811920,188.020142 
	C180.959595,189.060883 183.107285,190.101639 185.188980,191.540771 
	C183.995682,192.620605 182.329742,193.029770 181.825882,194.026413 
	C177.642441,202.301437 171.089630,201.634796 164.116028,198.772110 
	C159.936981,197.056610 155.980652,194.798492 152.041138,192.481201 
	C153.440872,190.501862 154.723709,188.825592 156.006531,187.149323 
	C157.416260,186.778091 158.826004,186.406860 160.914551,186.256073 
	C167.332870,186.991058 173.072403,187.505600 178.811920,188.020142 
z"/>
<path fill="#BD7958" opacity="1.000000" stroke="none" 
	d="
M31.029238,177.915298 
	C33.051331,178.606369 35.073418,179.297455 37.528618,180.350525 
	C38.304947,181.815033 38.648170,182.917557 38.905067,184.365967 
	C36.524025,185.818695 34.304226,187.131210 31.922321,187.998566 
	C17.576885,193.222321 17.355019,192.696732 7.946095,182.890381 
	C10.019398,181.602646 12.092704,180.314926 14.998840,179.003998 
	C20.897526,178.625626 25.963381,178.270462 31.029238,177.915298 
z"/>
<path fill="#A3694F" opacity="1.000000" stroke="none" 
	d="
M184.060165,210.149750 
	C181.294617,214.530640 175.697296,216.298660 169.511749,214.182068 
	C161.195984,211.336548 153.010071,208.111557 144.407455,204.656433 
	C145.245941,202.475922 146.445389,200.688416 147.994415,199.042419 
	C159.308426,203.069946 169.486404,211.100586 182.462112,205.190521 
	C183.061798,207.051498 183.560989,208.600632 184.060165,210.149750 
z"/>
<path fill="#3B3C3E" opacity="1.000000" stroke="none" 
	d="
M74.822235,162.036865 
	C71.369820,161.773529 67.917412,161.510193 63.877335,161.590546 
	C61.928131,162.992294 60.566601,164.050323 59.205074,165.108368 
	C59.183651,164.309830 59.162228,163.511276 58.972923,161.983459 
	C55.823254,160.685898 52.841473,160.117630 49.459690,159.473114 
	C54.711460,153.634445 59.609631,148.188889 64.664688,143.040558 
	C68.284950,148.207733 71.748337,153.077713 75.114601,158.348846 
	C74.952400,159.845612 74.887314,160.941238 74.822235,162.036865 
z"/>
<path fill="#A3694F" opacity="1.000000" stroke="none" 
	d="
M44.383575,198.903183 
	C36.897396,201.271561 29.411213,203.639938 21.313389,206.115967 
	C20.419085,206.377487 20.194847,206.592331 20.029039,206.868164 
	C18.621143,206.906784 17.213247,206.945389 15.239723,206.742477 
	C14.437795,206.286118 14.166096,206.134857 13.858999,206.047150 
	C13.858999,206.047150 13.414907,205.980255 13.139179,205.565979 
	C11.793864,202.297180 6.733841,200.767212 10.308656,195.927032 
	C16.154898,199.884232 22.170300,198.890396 28.462936,196.454926 
	C32.885548,194.743210 37.707291,194.062744 42.552933,193.196777 
	C43.297894,195.282257 43.840736,197.092712 44.383575,198.903183 
z"/>
<path fill="#3B3C3E" opacity="1.000000" stroke="none" 
	d="
M156.000244,161.113373 
	C149.941025,160.889114 143.881836,160.664871 137.080490,160.229767 
	C134.190460,159.333160 132.042557,158.647415 130.072784,157.697632 
	C130.710663,156.722000 131.170441,156.010391 131.901337,155.149490 
	C133.582947,152.723419 134.993454,150.446655 136.721497,148.039642 
	C138.615463,147.704590 140.191910,147.499786 141.850708,147.649185 
	C143.866150,152.968430 145.623611,153.392532 150.126709,150.068237 
	C152.181641,151.887939 154.397888,153.282852 155.527023,155.289490 
	C156.394608,156.831360 155.892975,159.143677 156.000244,161.113373 
z"/>
<path fill="#3FBA7A" opacity="1.000000" stroke="none" 
	d="
M136.928665,164.181961 
	C140.763214,170.339905 144.565811,176.518387 148.490189,182.618561 
	C148.820724,183.132355 149.968094,183.120667 150.574463,183.714630 
	C148.272552,186.049149 146.132141,188.022125 143.651810,189.945221 
	C140.863068,187.751907 138.445847,185.570953 135.958084,183.473709 
	C132.126617,180.243683 132.055496,176.378281 134.411682,172.454926 
	C136.604355,168.803818 135.118362,166.734222 131.837494,164.712036 
	C130.433533,162.971771 129.195541,161.517929 127.926987,160.023315 
	C127.896400,159.982544 127.931648,159.886902 128.296906,159.971222 
	C131.417664,161.431000 134.173157,162.806488 136.928665,164.181961 
z"/>
<path fill="#B97657" opacity="1.000000" stroke="none" 
	d="
M105.106163,229.454987 
	C111.086815,229.004623 117.000816,229.003647 123.371597,229.003021 
	C123.876411,232.043060 123.924446,235.082764 123.446144,238.563171 
	C118.285095,239.055527 113.650383,239.107147 108.634186,239.099976 
	C107.224449,239.024246 106.196182,239.007294 105.167923,238.990356 
	C105.125122,235.961685 105.082314,232.933029 105.106163,229.454987 
z"/>
<path fill="#B97657" opacity="1.000000" stroke="none" 
	d="
M70.104996,229.454590 
	C76.085953,229.004181 81.999855,229.004257 88.370468,229.004974 
	C88.871918,232.034149 88.916656,235.062698 88.511360,238.540985 
	C87.035652,239.046768 86.009979,239.102829 84.522858,239.103394 
	C79.431328,239.040054 74.801254,239.032211 70.171181,239.024368 
	C70.126770,235.984604 70.082352,232.944855 70.104996,229.454590 
z"/>
<path fill="#AA6E50" opacity="1.000000" stroke="none" 
	d="
M42.350807,192.921783 
	C37.707291,194.062744 32.885548,194.743210 28.462936,196.454926 
	C22.170300,198.890396 16.154898,199.884232 10.308656,195.927032 
	C6.733841,200.767212 11.793864,202.297180 12.926819,205.492981 
	C11.007515,203.912857 8.322436,202.326645 7.207697,199.990967 
	C5.557938,196.534286 5.022920,192.545593 4.470820,188.391022 
	C6.549121,188.565094 8.908626,188.639282 9.668378,189.779465 
	C13.957135,196.215759 19.685200,195.681351 25.948986,193.900864 
	C30.997217,192.465912 36.111980,191.264999 41.402527,190.167206 
	C41.857685,190.903366 42.107533,191.432571 42.335838,192.201630 
	C42.314297,192.441498 42.350807,192.921783 42.350807,192.921783 
z"/>
<path fill="#B37354" opacity="1.000000" stroke="none" 
	d="
M151.924210,192.784271 
	C155.980652,194.798492 159.936981,197.056610 164.116028,198.772110 
	C171.089630,201.634796 177.642441,202.301437 181.825882,194.026413 
	C182.329742,193.029770 183.995682,192.620605 185.503143,191.789734 
	C189.332306,193.672379 187.804962,196.846512 187.152283,199.649323 
	C184.963776,199.997513 182.781784,199.852203 181.841812,200.862457 
	C177.890625,205.109253 173.290955,205.812454 168.258286,203.805801 
	C162.054825,201.332352 156.006790,198.469070 149.936783,195.497925 
	C150.073395,194.858521 150.164810,194.495438 150.485840,193.990082 
	C151.118378,193.493271 151.521286,193.138763 151.924210,192.784271 
z"/>
<path fill="#4E545A" opacity="1.000000" stroke="none" 
	d="
M138.983994,79.661583 
	C135.623901,77.978790 132.082260,76.008888 128.544464,74.032097 
	C111.979095,64.775948 88.042702,63.795315 72.293846,77.032898 
	C70.711868,78.362617 68.549217,79.001488 66.282501,79.952774 
	C77.785912,67.093361 92.587982,63.397942 109.490585,65.660919 
	C120.769432,67.170959 130.829483,70.957138 138.983994,79.661583 
z"/>
<path fill="#B37354" opacity="1.000000" stroke="none" 
	d="
M41.197220,189.960236 
	C36.111980,191.264999 30.997217,192.465912 25.948986,193.900864 
	C19.685200,195.681351 13.957135,196.215759 9.668378,189.779465 
	C8.908626,188.639282 6.549121,188.565094 4.538107,187.994995 
	C3.913623,185.573029 3.434689,183.007706 7.555175,182.930695 
	C17.355019,192.696732 17.576885,193.222321 31.922321,187.998566 
	C34.304226,187.131210 36.524025,185.818695 39.122910,184.576202 
	C39.897709,185.320297 40.368340,186.200089 40.872604,187.440994 
	C41.003231,188.521484 41.100227,189.240860 41.197220,189.960236 
z"/>
<path fill="#AA6E50" opacity="1.000000" stroke="none" 
	d="
M149.891586,195.774261 
	C156.006790,198.469070 162.054825,201.332352 168.258286,203.805801 
	C173.290955,205.812454 177.890625,205.109253 181.841812,200.862457 
	C182.781784,199.852203 184.963776,199.997513 186.820129,199.867645 
	C186.281158,203.330002 185.496552,206.536026 184.386063,209.945908 
	C183.560989,208.600632 183.061798,207.051498 182.462112,205.190521 
	C169.486404,211.100586 159.308426,203.069946 148.035797,198.810883 
	C147.727585,198.437866 147.745346,197.967697 147.954376,197.739380 
	C148.739471,196.932144 149.315536,196.353195 149.891586,195.774261 
z"/>
<path fill="#464B51" opacity="1.000000" stroke="none" 
	d="
M64.507812,142.743347 
	C59.609631,148.188889 54.711460,153.634445 49.459690,159.473114 
	C52.841473,160.117630 55.823254,160.685898 58.906509,161.589294 
	C57.033184,161.943542 54.996529,162.271164 53.101730,161.891251 
	C51.358013,161.541641 48.694202,160.737930 48.363708,159.582703 
	C47.885941,157.912659 48.774395,155.532532 49.742741,153.832993 
	C51.904663,150.038605 54.476650,146.477859 57.145554,142.250366 
	C58.254467,140.397598 59.099407,139.116379 60.257450,138.037323 
	C61.882973,139.740753 63.195389,141.242050 64.507812,142.743347 
z"/>
<path fill="#DC965C" opacity="1.000000" stroke="none" 
	d="
M59.944347,137.835159 
	C59.099407,139.116379 58.254467,140.397598 57.160946,141.899811 
	C51.069450,141.514389 50.199310,140.245499 52.229324,134.121704 
	C53.751045,131.341583 54.877182,129.154602 56.381119,126.990128 
	C60.206043,126.887756 61.484730,129.006897 61.682816,132.248291 
	C60.945545,134.276520 60.444946,136.055832 59.944347,137.835159 
z"/>
<path fill="#B1C3D2" opacity="1.000000" stroke="none" 
	d="
M84.984306,239.158890 
	C86.009979,239.102829 87.035652,239.046768 88.446716,238.990601 
	C88.879005,241.365143 88.925896,243.739807 88.504608,246.557358 
	C82.170609,247.665909 76.315445,248.492355 70.431351,248.882065 
	C68.993919,248.977249 67.461670,247.640823 65.973007,246.962616 
	C66.481789,246.399841 66.990570,245.837082 68.181396,245.134277 
	C71.295174,245.325668 73.718422,245.835678 76.160408,245.951859 
	C81.457619,246.203873 84.468208,243.794876 84.984306,239.158890 
z"/>
<path fill="#B1C3D2" opacity="1.000000" stroke="none" 
	d="
M105.091843,239.431763 
	C106.196182,239.007294 107.224449,239.024246 108.631454,239.478821 
	C110.011459,244.459381 113.588776,246.601196 119.110962,245.924408 
	C121.407936,245.642899 123.696541,245.293091 125.988953,244.974365 
	C126.904587,245.791977 127.820221,246.609589 128.555573,247.966232 
	C120.640694,248.000458 112.906113,247.495651 105.171532,246.990860 
	C105.119606,244.618301 105.067680,242.245743 105.091843,239.431763 
z"/>
<path fill="#38A86D" opacity="1.000000" stroke="none" 
	d="
M49.995422,189.005920 
	C52.581848,187.710968 55.184345,186.446945 57.750565,185.113098 
	C60.828621,183.513214 63.363651,183.560226 64.905579,187.682617 
	C61.216248,190.680832 57.449791,193.240341 53.223831,195.646362 
	C51.841152,193.666763 50.917973,191.840668 49.996773,189.762299 
	C49.997646,189.342026 49.996536,189.173981 49.995422,189.005920 
z"/>
<path fill="#B8CCDC" opacity="1.000000" stroke="none" 
	d="
M84.522858,239.103394 
	C84.468208,243.794876 81.457619,246.203873 76.160408,245.951859 
	C73.718422,245.835678 71.295174,245.325668 68.436966,244.984665 
	C68.682404,243.230743 69.354294,241.486404 70.098679,239.383209 
	C74.801254,239.032211 79.431328,239.040054 84.522858,239.103394 
z"/>
<path fill="#B37456" opacity="1.000000" stroke="none" 
	d="
M153.052216,124.889900 
	C156.307404,128.760315 156.316254,135.114639 153.066071,140.411240 
	C152.475601,141.373505 151.857574,142.318863 150.788895,143.638214 
	C149.940857,144.065475 149.556168,144.126526 149.122162,143.783386 
	C148.361877,141.520584 147.650925,139.661987 147.028809,137.451904 
	C147.428513,134.064392 147.739365,131.028351 148.402802,127.984192 
	C150.187668,126.947342 151.619934,125.918617 153.052216,124.889900 
z"/>
<path fill="#B8CCDC" opacity="1.000000" stroke="none" 
	d="
M125.891319,244.630737 
	C123.696541,245.293091 121.407936,245.642899 119.110962,245.924408 
	C113.588776,246.601196 110.011459,244.459381 109.012939,239.537628 
	C113.650383,239.107147 118.285095,239.055527 123.374268,239.014038 
	C124.483711,240.778488 125.138695,242.532806 125.891319,244.630737 
z"/>
<path fill="#B37456" opacity="1.000000" stroke="none" 
	d="
M56.003319,126.967628 
	C54.877182,129.154602 53.751045,131.341583 52.393723,133.768524 
	C50.204094,128.775864 47.595680,123.629044 50.443260,117.419632 
	C52.586773,117.686966 54.311420,118.351730 56.025078,119.457947 
	C56.010498,122.255470 56.006908,124.611549 56.003319,126.967628 
z"/>
<path fill="#2AA162" opacity="1.000000" stroke="none" 
	d="
M123.180725,201.563202 
	C121.295364,201.938599 119.547874,201.941299 117.382477,201.483810 
	C118.332863,197.022217 119.701149,193.020828 121.399918,188.965027 
	C123.148125,188.276367 124.565849,187.642105 125.983734,187.317413 
	C125.988968,188.039734 125.994019,188.452469 125.999084,188.865204 
	C125.105583,192.973633 124.212082,197.082062 123.180725,201.563202 
z"/>
<path fill="#2A915A" opacity="1.000000" stroke="none" 
	d="
M49.994793,190.014557 
	C50.917973,191.840668 51.841152,193.666763 52.908401,195.805023 
	C53.309948,196.699585 53.924828,197.416748 53.764595,197.841629 
	C52.962982,199.967316 46.805496,201.009888 44.594810,199.176208 
	C43.840736,197.092712 43.297894,195.282257 42.552933,193.196777 
	C42.350807,192.921783 42.314297,192.441498 42.689651,192.191315 
	C45.374935,191.298950 47.684864,190.656754 49.994793,190.014557 
z"/>
<path fill="#2A915A" opacity="1.000000" stroke="none" 
	d="
M147.745346,197.967697 
	C147.745346,197.967697 147.727585,198.437866 147.686218,198.669403 
	C146.445389,200.688416 145.245941,202.475922 144.034363,204.600952 
	C140.398651,207.448639 138.691727,203.541092 136.226715,202.406387 
	C135.676392,202.153061 135.980515,200.043533 136.216827,198.379303 
	C137.372223,197.002777 138.202011,196.035538 139.352600,195.045258 
	C140.102020,194.993179 140.530685,194.964142 141.182144,195.201355 
	C143.518417,196.300949 145.631882,197.134323 147.745346,197.967697 
z"/>
<path fill="#B97657" opacity="1.000000" stroke="none" 
	d="
M56.036068,119.016495 
	C54.311420,118.351730 52.586773,117.686966 50.509018,117.008026 
	C51.202003,115.073547 52.248104,113.153244 53.566383,111.036987 
	C56.270733,109.562004 58.702900,108.282967 62.068928,106.512817 
	C62.068928,109.343040 62.068928,111.245079 61.682732,113.625137 
	C59.543045,115.740944 57.789558,117.378723 56.036068,119.016495 
z"/>
<path fill="#2AA162" opacity="1.000000" stroke="none" 
	d="
M65.579681,188.071045 
	C67.346375,188.770401 69.367790,189.720184 71.846954,191.162140 
	C73.227638,195.044846 74.150574,198.435379 75.073517,201.825912 
	C73.372322,201.867767 71.671127,201.909637 69.546295,201.917755 
	C68.026573,197.363174 66.930496,192.842316 65.579681,188.071045 
z"/>
<path fill="#27A662" opacity="1.000000" stroke="none" 
	d="
M152.041138,192.481201 
	C151.521286,193.138763 151.118378,193.493271 150.134888,193.829208 
	C147.356400,193.201126 145.158463,192.591614 143.082016,191.729691 
	C143.466263,190.983231 143.729004,190.489166 143.991730,189.995117 
	C146.132141,188.022125 148.272552,186.049149 150.759491,184.023560 
	C152.542450,184.909363 153.978882,185.847809 155.710922,186.967789 
	C154.723709,188.825592 153.440872,190.501862 152.041138,192.481201 
z"/>
<path fill="#38A86D" opacity="1.000000" stroke="none" 
	d="
M139.031815,195.068314 
	C138.202011,196.035538 137.372223,197.002777 136.201202,198.026199 
	C132.778076,195.115265 129.696182,192.148117 126.306679,189.023102 
	C125.994019,188.452469 125.988968,188.039734 126.358292,187.371765 
	C132.016617,187.935486 136.201904,190.453705 139.031815,195.068314 
z"/>
<path fill="#3FBA7A" opacity="1.000000" stroke="none" 
	d="
M58.996811,165.377197 
	C60.566601,164.050323 61.928131,162.992294 63.601540,161.824982 
	C63.702568,162.601547 63.491722,163.487366 62.850262,164.854340 
	C57.904888,171.096237 52.931763,176.305252 45.673317,178.916794 
	C44.969444,178.236160 44.503830,177.688980 44.038216,177.141815 
	C48.954994,173.309891 53.871773,169.477966 58.996811,165.377197 
z"/>
<path fill="#AABBC9" opacity="1.000000" stroke="none" 
	d="
M65.672546,247.118835 
	C67.461670,247.640823 68.993919,248.977249 70.431351,248.882065 
	C76.315445,248.492355 82.170609,247.665909 88.432892,246.995529 
	C88.878761,248.069855 88.928177,249.148911 88.906418,250.628174 
	C79.499695,251.003632 70.164139,250.978867 60.352760,250.940002 
	C61.708649,249.708954 63.540359,248.492004 65.672546,247.118835 
z"/>
<path fill="#AABBC9" opacity="1.000000" stroke="none" 
	d="
M105.095085,247.390106 
	C112.906113,247.495651 120.640694,248.000458 128.696259,248.240143 
	C130.618073,248.754257 132.218903,249.533508 133.970459,250.618652 
	C124.774452,250.954407 115.427757,250.984268 105.622955,251.021317 
	C105.116119,249.948792 105.067383,248.869064 105.095085,247.390106 
z"/>
<path fill="#27A662" opacity="1.000000" stroke="none" 
	d="
M43.652863,177.084473 
	C44.503830,177.688980 44.969444,178.236160 45.709900,179.288910 
	C46.344681,181.500839 46.704624,183.207184 46.798885,185.170715 
	C44.635124,185.978592 42.737045,186.529236 40.838966,187.079880 
	C40.368340,186.200089 39.897709,185.320297 39.209236,184.230286 
	C38.648170,182.917557 38.304947,181.815033 37.890686,180.368790 
	C39.635609,179.025742 41.451561,178.026428 43.652863,177.084473 
z"/>
<path fill="#AC6A4B" opacity="1.000000" stroke="none" 
	d="
M178.774246,187.663330 
	C173.072403,187.505600 167.332870,186.991058 161.283905,186.198654 
	C164.925018,182.584061 169.669785,182.458344 174.295654,183.323578 
	C175.965851,183.635956 177.267014,185.921417 178.774246,187.663330 
z"/>
<path fill="#B97657" opacity="1.000000" stroke="none" 
	d="
M153.031158,124.520432 
	C151.619934,125.918617 150.187668,126.947342 148.336670,127.645172 
	C146.826538,125.777351 145.735153,124.240425 144.643753,122.703499 
	C145.031891,120.876930 145.420029,119.050362 145.974976,116.438751 
	C147.900620,117.884315 149.150604,118.822670 150.709366,119.903091 
	C151.682129,121.413765 152.346100,122.782364 153.031158,124.520432 
z"/>
<path fill="#AC6A4B" opacity="1.000000" stroke="none" 
	d="
M30.866348,177.565979 
	C25.963381,178.270462 20.897526,178.625626 15.357670,178.963837 
	C16.377480,177.649933 17.893061,175.243591 19.360849,175.272400 
	C23.152977,175.346817 26.924004,176.496429 30.866348,177.565979 
z"/>
<path fill="#4E545A" opacity="1.000000" stroke="none" 
	d="
M149.171494,144.187561 
	C149.556168,144.126526 149.940857,144.065475 150.612595,143.948303 
	C153.313416,147.474686 155.457672,151.283188 158.217957,154.575119 
	C160.889557,157.761292 160.264008,159.558136 156.374634,161.066071 
	C155.892975,159.143677 156.394608,156.831360 155.527023,155.289490 
	C154.397888,153.282852 152.181641,151.887939 150.116623,149.703430 
	C149.590485,147.513901 149.380997,145.850739 149.171494,144.187561 
z"/>
<path fill="#4E545A" opacity="1.000000" stroke="none" 
	d="
M60.642235,86.082771 
	C60.639862,88.008835 60.332870,90.105652 60.010460,92.598206 
	C58.200665,96.492981 56.406288,99.992027 54.354935,103.709007 
	C56.177845,98.035805 58.257732,92.144661 60.642235,86.082771 
z"/>
<path fill="#4E545A" opacity="1.000000" stroke="none" 
	d="
M149.881744,94.621033 
	C147.252945,91.184540 144.644592,87.391182 142.041962,83.217590 
	C144.665863,86.646294 147.284027,90.455231 149.881744,94.621033 
z"/>
<path fill="#171717" opacity="1.000000" stroke="none" 
	d="
M136.948624,163.778198 
	C134.173157,162.806488 131.417664,161.431000 128.399567,159.705139 
	C128.722885,158.890381 129.308777,158.426025 129.894669,157.961670 
	C132.042557,158.647415 134.190460,159.333160 136.713989,160.090607 
	C137.049286,161.233017 137.008926,162.303741 136.948624,163.778198 
z"/>
<path fill="#4E545A" opacity="1.000000" stroke="none" 
	d="
M65.649521,80.066353 
	C64.500999,81.900826 63.057610,83.892708 61.256317,85.917175 
	C62.383831,84.041092 63.869244,82.132431 65.649521,80.066353 
z"/>
<path fill="#4E545A" opacity="1.000000" stroke="none" 
	d="
M151.900085,100.617218 
	C151.241974,99.529396 150.629898,98.085548 150.030487,96.245926 
	C150.677460,97.320503 151.311798,98.790840 151.900085,100.617218 
z"/>
<path fill="#4E545A" opacity="1.000000" stroke="none" 
	d="
M152.918976,116.489380 
	C152.731613,115.135246 152.587540,113.367340 152.675400,111.338684 
	C152.925659,112.743828 152.943954,114.409729 152.918976,116.489380 
z"/>
<path fill="#AA6E50" opacity="1.000000" stroke="none" 
	d="
M20.290937,206.873566 
	C20.194847,206.592331 20.419085,206.377487 20.918522,206.132568 
	C20.941143,206.320648 20.746988,206.599792 20.290937,206.873566 
z"/>
<path fill="#AA6E50" opacity="1.000000" stroke="none" 
	d="
M13.957861,206.288574 
	C14.166096,206.134857 14.437795,206.286118 14.820446,206.684647 
	C14.663439,206.755554 14.360081,206.642776 13.957861,206.288574 
z"/>
<path fill="#4E545A" opacity="1.000000" stroke="none" 
	d="
M152.853516,102.711395 
	C152.606430,102.803322 152.379303,102.580330 152.121887,102.067932 
	C152.286652,102.051315 152.547287,102.257301 152.853516,102.711395 
z"/>
<path fill="#5E61B2" opacity="1.000000" stroke="none" 
	d="
M90.567520,221.029541 
	C85.505173,217.863922 90.238525,215.536530 90.917343,212.495819 
	C94.683578,212.119904 98.395241,212.081192 102.567230,212.100479 
	C103.138969,215.067474 108.549507,217.055588 104.200348,220.867142 
	C99.602142,221.036484 95.313057,221.024719 90.567520,221.029541 
z"/>
<path fill="#BD7958" opacity="1.000000" stroke="none" 
	d="
M130.072784,157.697632 
	C129.308777,158.426025 128.722885,158.890381 128.034317,159.620819 
	C127.931648,159.886902 127.896400,159.982544 127.604523,160.024109 
	C126.544510,160.423859 125.776360,160.782028 124.666634,161.209778 
	C122.137184,162.222244 119.949310,163.165146 117.569153,164.191711 
	C117.053307,164.537476 116.729736,164.799561 115.959549,165.040131 
	C113.006821,165.350494 110.500710,165.682388 107.551720,166.002563 
	C101.077522,165.322403 95.046196,164.653961 88.763962,163.741318 
	C86.692284,162.975372 84.871521,162.453629 82.820663,161.684738 
	C80.130943,160.274277 77.671333,159.110977 75.211716,157.947678 
	C71.748337,153.077713 68.284950,148.207733 64.664688,143.040558 
	C63.195389,141.242050 61.882973,139.740753 60.257450,138.037323 
	C60.444946,136.055832 60.945545,134.276520 62.063816,132.142303 
	C63.463207,128.496872 64.244926,125.206337 65.026649,121.915810 
	C71.103218,122.041771 71.904144,121.256897 72.003601,115.131729 
	C72.036041,113.133652 72.086769,111.135307 72.175461,109.139145 
	C72.196655,108.662132 72.403336,108.193359 72.471260,107.928886 
	C79.980782,106.262657 87.343506,104.628998 93.972534,103.158142 
	C100.575989,108.370445 106.711510,114.566231 114.053940,118.521591 
	C118.754585,121.053848 125.228882,120.383507 130.933197,120.821045 
	C131.491425,120.863861 132.226547,118.600288 132.879562,117.407265 
	C133.375076,117.437538 133.870605,117.467819 134.366135,117.498093 
	C134.234329,119.267761 134.203873,121.051994 133.952026,122.804420 
	C133.137375,128.473206 134.321640,129.904755 140.535843,130.468140 
	C140.461945,132.938614 139.701614,134.996765 139.583054,137.091278 
	C139.511856,138.348663 140.442261,139.662735 140.953644,141.353790 
	C141.245956,143.602463 141.507156,145.448715 141.768356,147.294952 
	C140.191910,147.499786 138.615463,147.704590 136.303284,147.995972 
	C133.498077,149.270966 131.428604,150.459381 129.359131,151.647797 
	C130.116165,152.864807 130.873184,154.081802 131.630219,155.298798 
	C131.170441,156.010391 130.710663,156.722000 130.072784,157.697632 
M81.626869,119.642494 
	C79.383270,119.372314 77.139679,119.102127 74.129585,118.739632 
	C75.369476,121.479912 76.246025,123.417152 77.125473,126.168289 
	C76.474495,134.327316 80.381958,138.273132 87.661201,135.958115 
	C91.417183,134.117432 92.851929,130.783676 92.093422,127.041756 
	C91.505806,124.142921 90.327232,120.829948 85.814499,120.378128 
	C84.645912,120.279060 83.477318,120.180000 81.626869,119.642494 
M123.065186,125.016617 
	C120.415611,124.987495 117.766029,124.958374 114.840370,125.541039 
	C111.576988,129.992508 111.281700,134.805542 114.163246,139.494537 
	C120.811485,143.075943 125.605782,140.241989 127.640800,131.320755 
	C128.674927,129.528442 129.709045,127.736145 131.242874,125.077774 
	C128.270554,125.077774 126.056320,125.077774 123.065186,125.016617 
M103.955742,146.030487 
	C100.229271,145.616547 96.510704,145.044800 92.772873,144.857651 
	C91.000145,144.768890 89.190636,145.414627 87.397781,145.727600 
	C87.932114,147.482666 88.466446,149.237747 89.309395,151.597275 
	C95.557182,158.539566 101.037491,159.825256 107.429848,155.192200 
	C109.598488,153.620407 110.835312,150.762955 112.497955,148.493027 
	C109.922058,147.686142 107.346169,146.879257 103.955742,146.030487 
M107.709846,138.185638 
	C107.143074,132.803864 104.126770,131.034302 98.275810,133.004639 
	C96.994041,133.436279 95.179443,135.004059 95.215286,135.990280 
	C95.268509,137.454544 96.725784,140.064835 97.632790,140.085266 
	C100.855476,140.157837 104.098198,139.340179 107.709846,138.185638 
M78.501701,110.213356 
	C77.220467,111.192245 75.939240,112.171143 74.186737,113.510101 
	C86.596306,118.778656 92.666756,119.064125 94.424255,114.535561 
	C89.348091,113.157745 84.307083,111.789474 78.501701,110.213356 
z"/>
<path fill="#709FBB" opacity="1.000000" stroke="none" 
	d="
M129.929657,97.932892 
	C110.199753,90.833565 90.494675,89.839676 70.460014,94.667664 
	C70.151115,94.257072 69.842224,93.846474 69.533325,93.435875 
	C72.675095,90.880386 75.428970,87.294655 79.023369,85.941368 
	C98.257492,78.699753 116.805344,80.483841 134.045837,91.977959 
	C138.526306,94.965073 140.717422,99.298225 140.579422,103.024521 
	C137.072098,101.331177 133.682571,99.694702 129.929657,97.932892 
z"/>
<path fill="#A76140" opacity="1.000000" stroke="none" 
	d="
M140.922516,140.951340 
	C140.442261,139.662735 139.511856,138.348663 139.583054,137.091278 
	C139.701614,134.996765 140.461945,132.938614 140.960083,130.476379 
	C142.072556,127.828087 143.177017,125.568550 144.462616,123.006256 
	C145.735153,124.240425 146.826538,125.777351 147.984070,127.653297 
	C147.739365,131.028351 147.428513,134.064392 146.638062,137.482071 
	C144.413162,138.892914 142.667831,139.922134 140.922516,140.951340 
z"/>
<path fill="#A76140" opacity="1.000000" stroke="none" 
	d="
M64.804413,121.646118 
	C64.244926,125.206337 63.463207,128.496872 62.300484,131.893402 
	C61.484730,129.006897 60.206043,126.887756 56.381115,126.990128 
	C56.006908,124.611549 56.010498,122.255470 56.025078,119.457947 
	C57.789558,117.378723 59.543045,115.740944 61.628204,114.046661 
	C62.833973,116.452240 63.708080,118.914337 64.804413,121.646118 
z"/>
<path fill="#B37354" opacity="1.000000" stroke="none" 
	d="
M118.818069,115.875153 
	C117.097389,113.206512 117.747238,111.819885 120.784706,112.634033 
	C122.629356,113.128464 124.309265,114.237526 126.013084,115.915283 
	C123.739960,115.915283 121.466843,115.915283 118.818069,115.875153 
z"/>
<path fill="#3CBE7A" opacity="1.000000" stroke="none" 
	d="
M75.533058,201.884033 
	C74.150574,198.435379 73.227638,195.044846 72.149887,191.329590 
	C71.993828,188.638672 71.903137,186.214111 75.685638,186.382080 
	C77.260986,187.522125 78.301819,188.752304 79.542969,189.007217 
	C82.913551,189.699509 86.382538,190.432220 89.788094,190.330597 
	C97.800896,190.091461 105.803253,189.422867 113.797913,188.779831 
	C114.589310,188.716171 115.298531,187.630768 116.380051,187.061066 
	C118.165962,187.741501 119.617699,188.380478 121.069435,189.019440 
	C119.701149,193.020828 118.332863,197.022217 116.948898,201.430649 
	C103.286346,201.872513 89.639473,201.907349 75.533058,201.884033 
z"/>
<path fill="#DBDBDA" opacity="1.000000" stroke="none" 
	d="
M116.406174,165.061646 
	C116.729736,164.799561 117.053307,164.537476 117.632904,164.618195 
	C119.302010,172.518463 115.039169,177.241455 109.649094,181.400024 
	C109.625397,181.386719 109.578003,181.360123 109.214767,181.487427 
	C101.086777,185.210693 93.149292,184.894165 85.127243,182.662048 
	C78.295387,178.677353 72.199486,174.252197 74.799362,164.832138 
	C78.013931,172.711685 83.599129,177.204071 92.236160,178.484283 
	C95.015251,178.621231 97.534180,178.897293 99.919708,178.454529 
	C107.780777,176.995499 114.176712,173.541183 116.406174,165.061646 
z"/>
<path fill="#25A160" opacity="1.000000" stroke="none" 
	d="
M84.877609,182.964340 
	C93.149292,184.894165 101.086777,185.210693 109.340988,181.865326 
	C111.902252,183.750488 113.974068,185.385025 116.045883,187.019577 
	C115.298531,187.630768 114.589310,188.716171 113.797913,188.779831 
	C105.803253,189.422867 97.800896,190.091461 89.788094,190.330597 
	C86.382538,190.432220 82.913551,189.699509 79.542969,189.007217 
	C78.301819,188.752304 77.260986,187.522125 76.066391,186.368149 
	C78.878662,185.088562 81.753319,184.177597 84.877609,182.964340 
z"/>
<path fill="#3CBB78" opacity="1.000000" stroke="none" 
	d="
M47.064568,184.913513 
	C46.704624,183.207184 46.344681,181.500839 45.948151,179.422394 
	C52.931763,176.305252 57.904888,171.096237 62.708839,165.168091 
	C63.571743,166.908600 64.248276,168.792603 64.698898,170.729156 
	C65.818024,175.538574 63.811069,178.798523 59.331562,180.832581 
	C55.885685,182.397308 52.721874,184.583206 48.986145,186.577820 
	C48.047962,186.079681 47.556267,185.496597 47.064568,184.913513 
z"/>
<path fill="#A3694F" opacity="1.000000" stroke="none" 
	d="
M91.914886,178.294159 
	C83.599129,177.204071 78.013931,172.711685 75.014557,164.521027 
	C74.888550,163.723434 74.892731,163.239929 74.859573,162.396637 
	C74.887314,160.941238 74.952400,159.845612 75.114601,158.348846 
	C77.671333,159.110977 80.130943,160.274277 82.550842,161.929077 
	C80.198883,167.255737 81.794899,170.836456 87.466171,174.290680 
	C89.140686,175.310593 90.442360,176.942642 91.914886,178.294159 
z"/>
<path fill="#25A160" opacity="1.000000" stroke="none" 
	d="
M46.798882,185.170715 
	C47.556267,185.496597 48.047962,186.079681 48.769386,186.835114 
	C49.183090,187.548630 49.367065,188.089767 49.773232,188.818420 
	C49.996536,189.173981 49.997646,189.342026 49.996773,189.762299 
	C47.684864,190.656754 45.374935,191.298950 42.711189,191.951447 
	C42.107533,191.432571 41.857685,190.903366 41.402527,190.167206 
	C41.100227,189.240860 41.003231,188.521484 40.872601,187.440994 
	C42.737045,186.529236 44.635124,185.978592 46.798882,185.170715 
z"/>
<path fill="#E3995D" opacity="1.000000" stroke="none" 
	d="
M140.953644,141.353790 
	C142.667831,139.922134 144.413162,138.892914 146.549225,137.833557 
	C147.650925,139.661987 148.361877,141.520584 149.122162,143.783371 
	C149.380997,145.850739 149.590485,147.513901 149.810089,149.541885 
	C145.623611,153.392532 143.866150,152.968430 141.850708,147.649170 
	C141.507156,145.448715 141.245956,143.602463 140.953644,141.353790 
z"/>
<path fill="#B37354" opacity="1.000000" stroke="none" 
	d="
M131.901337,155.149490 
	C130.873184,154.081802 130.116165,152.864807 129.359131,151.647797 
	C131.428604,150.459381 133.498077,149.270966 135.985748,148.126221 
	C134.993454,150.446655 133.582947,152.723419 131.901337,155.149490 
z"/>
<path fill="#38B071" opacity="1.000000" stroke="none" 
	d="
M116.380051,187.061066 
	C113.974068,185.385025 111.902252,183.750488 109.704224,181.738037 
	C109.578003,181.360123 109.625397,181.386719 110.035950,181.569748 
	C117.494690,180.691605 123.767044,178.406387 125.187744,170.341019 
	C125.709930,167.376587 125.101128,164.212952 125.008209,161.140198 
	C125.776360,160.782028 126.544510,160.423859 127.635109,160.064880 
	C129.195541,161.517929 130.433533,162.971771 131.686005,165.045227 
	C131.232925,166.899963 130.711777,168.117783 130.306351,169.372986 
	C127.149017,179.147919 126.859917,180.729874 134.856613,186.633652 
	C137.203094,188.366013 138.974152,190.877762 141.004486,193.349747 
	C140.986481,194.089813 140.972916,194.512466 140.959335,194.935104 
	C140.530685,194.964142 140.102020,194.993179 139.352600,195.045258 
	C136.201904,190.453705 132.016617,187.935486 126.358124,187.062195 
	C124.565849,187.642105 123.148125,188.276367 121.399918,188.965042 
	C119.617699,188.380478 118.165962,187.741501 116.380051,187.061066 
z"/>
<path fill="#3AB675" opacity="1.000000" stroke="none" 
	d="
M141.008926,193.032318 
	C138.974152,190.877762 137.203094,188.366013 134.856613,186.633652 
	C126.859917,180.729874 127.149017,179.147919 130.306351,169.372986 
	C130.711777,168.117783 131.232925,166.899963 131.851974,165.331635 
	C135.118362,166.734222 136.604355,168.803818 134.411682,172.454926 
	C132.055496,176.378281 132.126617,180.243683 135.958084,183.473709 
	C138.445847,185.570953 140.863068,187.751907 143.651825,189.945236 
	C143.729004,190.489166 143.466263,190.983231 142.833344,191.850906 
	C141.978439,192.493790 141.493683,192.763062 141.008926,193.032318 
z"/>
<path fill="#25A160" opacity="1.000000" stroke="none" 
	d="
M141.004486,193.349747 
	C141.493683,192.763062 141.978439,192.493790 142.711853,192.103317 
	C145.158463,192.591614 147.356400,193.201126 149.905273,193.971497 
	C150.164810,194.495438 150.073395,194.858521 149.936783,195.497925 
	C149.315536,196.353195 148.739471,196.932144 147.954376,197.739380 
	C145.631882,197.134323 143.518417,196.300949 141.182144,195.201355 
	C140.972916,194.512466 140.986481,194.089813 141.004486,193.349747 
z"/>
<path fill="#996146" opacity="1.000000" stroke="none" 
	d="
M92.236153,178.484283 
	C90.442360,176.942642 89.140686,175.310593 87.466171,174.290680 
	C81.794899,170.836456 80.198883,167.255737 82.780945,162.176239 
	C84.871521,162.453629 86.692284,162.975372 88.527832,163.984467 
	C87.958420,169.415649 91.141136,171.262909 95.142334,171.901855 
	C102.194214,173.027939 106.089966,171.093185 107.994598,166.014282 
	C110.500710,165.682388 113.006821,165.350494 115.959557,165.040131 
	C114.176712,173.541183 107.780777,176.995499 99.919708,178.454529 
	C97.534180,178.897293 95.015251,178.621231 92.236153,178.484283 
z"/>
<path fill="#38A86D" opacity="1.000000" stroke="none" 
	d="
M124.666634,161.209778 
	C125.101128,164.212952 125.709930,167.376587 125.187744,170.341019 
	C123.767044,178.406387 117.494690,180.691605 110.059647,181.583054 
	C115.039169,177.241455 119.302010,172.518463 117.825195,164.534515 
	C119.949310,163.165146 122.137184,162.222244 124.666634,161.209778 
z"/>
<path fill="#AA6343" opacity="1.000000" stroke="none" 
	d="
M104.770271,146.072357 
	C107.346169,146.879257 109.922058,147.686142 112.497955,148.493027 
	C110.835312,150.762955 109.598488,153.620407 107.429848,155.192200 
	C101.037491,159.825256 95.557182,158.539566 89.589783,151.251358 
	C94.430290,151.344559 98.990417,151.783676 103.870193,152.253571 
	C104.210373,149.917419 104.490326,147.994888 104.770271,146.072357 
z"/>
<path fill="#46484B" opacity="1.000000" stroke="none" 
	d="
M86.145370,121.014809 
	C90.327232,120.829948 91.505806,124.142921 92.093422,127.041756 
	C92.851929,130.783676 91.417183,134.117432 86.951096,135.926056 
	C84.950905,134.768188 83.005432,133.881500 82.491287,132.472534 
	C80.823425,127.901932 82.662209,124.118530 86.145370,121.014809 
z"/>
<path fill="#46484B" opacity="1.000000" stroke="none" 
	d="
M114.032349,138.711349 
	C111.281700,134.805542 111.576988,129.992508 115.329117,125.366547 
	C121.272362,126.808823 122.811356,128.892776 121.697990,133.529465 
	C120.743889,137.502945 118.762032,140.204422 114.032349,138.711349 
z"/>
<path fill="#905B42" opacity="1.000000" stroke="none" 
	d="
M107.551720,166.002563 
	C106.089966,171.093185 102.194214,173.027939 95.142334,171.901855 
	C91.141136,171.262909 87.958420,169.415649 88.778740,164.228668 
	C95.046196,164.653961 101.077522,165.322403 107.551720,166.002563 
z"/>
<path fill="#FBF6F4" opacity="1.000000" stroke="none" 
	d="
M104.363007,146.051422 
	C104.490326,147.994888 104.210373,149.917419 103.870193,152.253571 
	C98.990417,151.783676 94.430290,151.344559 89.435471,150.949127 
	C88.466446,149.237747 87.932114,147.482666 87.397781,145.727600 
	C89.190636,145.414627 91.000145,144.768890 92.772873,144.857651 
	C96.510704,145.044800 100.229271,145.616547 104.363007,146.051422 
z"/>
<path fill="#FBF6F4" opacity="1.000000" stroke="none" 
	d="
M114.097794,139.102936 
	C118.762032,140.204422 120.743889,137.502945 121.697990,133.529465 
	C122.811356,128.892776 121.272362,126.808823 115.467155,125.060654 
	C117.766029,124.958374 120.415611,124.987495 123.582535,125.363022 
	C125.135582,127.734360 126.171280,129.759293 127.206985,131.784241 
	C125.605782,140.241989 120.811485,143.075943 114.097794,139.102936 
z"/>
<path fill="#975536" opacity="1.000000" stroke="none" 
	d="
M107.521591,138.522659 
	C104.098198,139.340179 100.855476,140.157837 97.632790,140.085266 
	C96.725784,140.064835 95.268509,137.454544 95.215286,135.990280 
	C95.179443,135.004059 96.994041,133.436279 98.275810,133.004639 
	C104.126770,131.034302 107.143074,132.803864 107.521591,138.522659 
z"/>
<path fill="#474343" opacity="1.000000" stroke="none" 
	d="
M78.883888,110.317284 
	C84.307083,111.789474 89.348091,113.157745 94.424255,114.535561 
	C92.666756,119.064125 86.596306,118.778656 74.186737,113.510101 
	C75.939240,112.171143 77.220467,111.192245 78.883888,110.317284 
z"/>
<path fill="#FBF6F4" opacity="1.000000" stroke="none" 
	d="
M85.979935,120.696472 
	C82.662209,124.118530 80.823425,127.901932 82.491287,132.472534 
	C83.005432,133.881500 84.950905,134.768188 86.602264,135.998459 
	C80.381958,138.273132 76.474495,134.327316 77.376190,125.523392 
	C79.187523,123.279305 80.748131,121.680122 82.308731,120.080933 
	C83.477318,120.180000 84.645912,120.279060 85.979935,120.696472 
z"/>
<path fill="#46484B" opacity="1.000000" stroke="none" 
	d="
M81.967804,119.861710 
	C80.748131,121.680122 79.187523,123.279305 77.374741,125.116440 
	C76.246025,123.417152 75.369476,121.479912 74.129585,118.739632 
	C77.139679,119.102127 79.383270,119.372314 81.967804,119.861710 
z"/>
<path fill="#474343" opacity="1.000000" stroke="none" 
	d="
M127.423889,131.552490 
	C126.171280,129.759293 125.135582,127.734360 123.970978,125.393600 
	C126.056320,125.077774 128.270554,125.077774 131.242874,125.077774 
	C129.709045,127.736145 128.674927,129.528442 127.423889,131.552490 
z"/>
</svg>